<?xml version="1.0" encoding="UTF-8"?><svg id="Layer_2" xmlns="http://www.w3.org/2000/svg" viewBox="0 0 747.427 958.01385"><g id="Layer_1-2"><path d="M94.28711,284.27966c-4.40381-5.25891-12.2749-2.67627-16.73413,1.11841-3.37817,2.69946-6.01074,6.35571-8.06934,10.4585-5.29834,10.11084-7.3252,26.7251-7.67236,36.24829l.00098.13208c.07544,3.6377,2.00684,9.71216,4.14136,14.51318,1.5481,3.35815,4.97803,2.55688,7.55103.95361,2.37988-1.3656,4.85449-2.74377,6.54395-4.88818,1.97949-2.48462,2.13965-5.8269,3.0957-8.7417,4.25659-12.35083,8.96191-24.61523,13.5188-36.81519,2.07544-4.47095,1.07788-9.18872-2.37598-12.979Z" style="fill:#2a3330;"/><path d="M50.01978,122.71912c.57446,33.39258,27.78125,54.82532,48.39209,62.24365,7.43115,2.67468,14.78223,1.57373,16.42969-6.19214,9.36279-44.12305-1.24268-62.18652-13.81323-74.81421-15.47632-17.39771-51.64917-18.4425-51.00854,18.7627Z" style="fill:#2a3330;"/><path d="M77.67456,372.47205l.02222.1814c6.72095,19.09375,44.94897,37.64539,58.63257,27.01855,15.42773-13.98767-11.62598-22.68262-23.32959-25.62939-6.63379-1.72144-13.55615-3.03394-19.67822-3.93604-4.06201-.59375-7.73877-1.02136-10.8042-1.24512-2.3291-.36768-5.24487.85376-4.84277,3.6106Z" style="fill:#2a3330;"/><path d="M67.22754,368.60974c-16.97705,15.74658-43.96973,22.00562-67.22754,19.02808v245.43701c19.1853,5.3186,31.78687,17.61865,41.43872,30.01282,8.19604,2.26385,8.18848-18.39514,7.8501-23.25281-.77222-7.66541.37549-14.20776.26514-21.8501,2.7019-16.89795-10.92236-11.92212-10.67578-29.65601-.82666-8.99854,2.71875-10.00903,9.15381-13.88904,3.25-10.37317-.20898-33.52454-.38037-41.21606,1.74829-22.50684-47.01465-32.08777-32.03369-58.84875,5.40259-9.69092,22.4585-6.98438,32.80322-7.35474,3.83496-22.81445,7.69385-75.82349,15.63062-87.05151.76587-2.68665,6.0166-9.80371,3.17578-11.35889Z" style="fill:#2a3330;"/><path d="M46.71558,339.86426c1.7251,2.08899,6.93018,6.50769,7.24023,1.47351-4.03955-27.95703,6.18164-111.24341,46.45752-64.27966,1.75098,2.67224,3.97681,1.66833,4.53247-1.55737,5.06665-20.55322,27.51758-47.2782,6.34839-64.79675-43.98169-35.31689-103.41333-74.54492-62.49048-120.65662,10.63843-12.38989,27.33765-15.80945,41.98364-9.71057,28.27759,10.86597,40.59766,40.25684,37.65479,68.19263.4978,17.40588-2.74194,38.2041,2.47607,54.08276,1.22192-2.02783,3.52637-12.49597,6.20288-20.72852,6.24707-10.51392-12.44873-23.21838,3.10059-30.19348,6.95728-.42224,10.02026-1.68518,11.20923-9.02136,4.16748-11.78857.15112-25.83313-9.05933-34.40039-20.00659-20.28809-34.03735-59.78979-20.60645-89.73828,3.0918-6.89429,7.04102-13.45459,11.87524-18.53015H0v317.87537c17.12964-.02686,35.96509,9.44507,46.71558,21.98889Z" style="fill:#2a3330;"/><path d="M176.48608,0c5.42578,5.50305,10.50537,12.82605,14.09424,16.98889.81787.83496,2.31592,2.67603,1.97827.00513-.6709-5.33936-.4436-11.23608,1.20776-16.99402h-17.28027Z" style="fill:#2a3330;"/><path d="M201.16333,20.90295c-.0271,6.3811,1.37134,11.90247,2.45972,17.8606,1.38574,7.39233.9165,13.9884,8.71362,17.255,7.88989,3.3053,12.61816.49792,22.6123-7.31238,12.38989-9.41382,19.96729-21.29736,20.12598-42.4552.02661-2.297-.17383-4.37683-.57202-6.25098h-47.19702c-3.94604,5.85376-6.35181,13.69128-6.14258,20.90295Z" style="fill:#2a3330;"/><path d="M38.9104,479.50793c-6.59229,1.82593-7.50293,6.73633-3.75049,12.91235,4.88574,8.12891,15.54834,17.76709,24.00146,21.54297l.18408.08032c9.65918,3.64954,22.02734,11.26611,31.18335,3.83228,1.59497-1.26282,2.09741-3.28564.55444-4.87891-15.02515-14.39294-31.2688-40.34167-52.17285-33.48901Z" style="fill:#2a3330;"/><path d="M202.84058,128.31091c17.15405-.08667,37.51465,1.42615,51.74512.21643,30.32666-2.92053,53.85327-11.04187,55.57471-34.31287.8125-7.6521,1.28076-16.93896-4.24048-26.86096-28.21533-41.16443-81.31885,3.35596-97.2998,13.86743-10.37305,6.82288-16.41528,17.39172-19.9209,26.90662-3.60913,9.79541,3.7019,20.23584,14.14136,20.18335Z" style="fill:#2a3330;"/><path d="M164.31836,108.57751c12.64111-14.35547,16.1626-20.26392,31.37085-35.31543,3.76782-4.47485,2.04736-11.0188,1.62402-16.54785-2.729-19.95166-26.74341-58.01733-45.42334-50.70215-36.60229,20.3877-5.75928,80.65381-1.09277,88.38635,2.55078,4.22644,9.43335,18.82129,13.52124,14.17908Z" style="fill:#2a3330;"/><path d="M79.80518,851.77728c-9.73706-13.0498-15.98364-17.55853-26.15967-21.75439-8.34985-3.44275-15.54028-2.10138-18.44165,3.37286-3.15552,5.95337,1.23486,16.04388,10.1333,25.53125,10.93921,11.66345,34.37109,26.10693,43.42236,20.91327,2.24609-1.28882,2.11768-9.75745.99951-13.08624-1.70312-5.07019-6.80566-10.75732-9.95386-14.97675Z" style="fill:#2a3330;"/><path d="M128.11621,859.85358c7.96411,6.56934,16.41431,7.23041,27.5354,7.58282,11.98267-.23859,33.78223-3.86261,42.43994-7.30701,68.81396-27.37653-29.36426-51.6087-67.79199-19.2785-6.21118,6.02087-9.34326,13.34839-2.18335,19.00269Z" style="fill:#2a3330;"/><path d="M712.12524,479.97217l-.00171-.00159c-18.26538-35.58838-44.1355-65.73596-76.8916-89.60669-8.17139-5.95117-16.76245-11.47974-25.73706-16.56348,38.9563-15.53967,77.53369-51.64001,81.20825-124.23389,2.49414-49.26465-8.71143-95.22583-33.31323-136.61365-22.36304-37.57373-55.76099-66.22925-99.2749-85.17578C515.69067,9.34558,463.25513,0,402.26172,0h-130.96826c1.88452,13.7821-5.54443,27.31055-12.83691,36.15833,18.08643-3.89111,50.82153,3.4751,61.87451,23.42334,4.82056,7.2301,8.38525,15.50378,8.81787,23.11719,6.73145,100.56323-136.04956,35.21399-160.10376,70.46899-33.59229,79.64893-25.62476,64.08984,5.6167,55.43298v-39.23425h203.78076c51.44116,0,81.35718,3.16431,102.10889,20.45752,33.09277,27.57666,19.19873,72.91626,17.50464,77.99707-8.19336,24.58154-21.69116,45.21582-104.06909,48.7074h-219.3252v-41.98926c-3.88843-3.43579-7.54248-7.07336-10.88867-10.85925-7.22119-10.35083-23.66968-15.19653-32.89844-5.01575-6.96387,8.58411-8.36255,22.3053-11.85303,32.06665-1.77661,3.92249.68115,5.4032,1.29395,9.43494,1.4585,7.02625-3.43311,12.62061-8.77393,16.30518-5.28223,7.16931-8.67944,14.51013-13.12573,21.98145-14.45874,25.89111-3.53491,13.79175,24.99512,23.65918,71.55786,24.22192,33.56299,73.78906-28.31348,39.74219-21.41406-19.26196-17.84814,1.59546-17.56372,16.51099,3.73169,13.77979,3.65771,20.5155-7.34375,29.56592-3.10449,27.62097-1.38818,31.47986,19.50952,45.59668,2.41699,1.26416,3.08911-1.70068,3.44604-3.68286,5.56396-30.14978,55.10303-56.77759,72.91528-26.42798,19.03735,44.95166-52.72632,43.06665-75.88281,64.69019-6.11353,5.15381-18.02905,2.14441-18.52563,11.38965.8999,12.03223-4.77588,45.76074,11.073,35.83362,27.66699-16.86487,62.35425-48.65356,91.93628-56.03967v-33.39673h226.27686c34.01172,0,63.71313,4.76758,88.26318,14.16333,23.49976,9.01538,41.84204,22.14844,54.51172,39.03137,12.6853,16.92053,26.33984,56.49841,26.33984,103.40686,0,40.90704-21.80713,94.11896-46.66748,113.87189-26.98804,21.42035-65.95996,32.28003-115.83545,32.28003h-232.88867v-74.18433c-46.79346,8.4588-87.729,18.24756-73.46045,60.99689,3.7644,11.37604,10.4668,72.19556,19.75732,64.82288,46.56787-49.82196,173.84619-10.43378,84.77734,29.73383-79.70264,33.31879-104.99756-45.11237-51.2124,74.80829,2.15332,4.33789,4.19092,8.74274,6.1543,13.18915h254.81543c49.89111,0,95.12109-6.255,134.43286-18.59271,39.81274-12.50055,74.40063-31.11676,102.80396-55.3335,28.73389-24.49536,50.70068-55.27863,65.29126-91.49805,15.27344-37.93225,29.40552-83.04791,29.40552-155.69653,0-77.64941-17.84595-122.89819-35.30176-156.9209Z" style="fill:#2a3330;"/><path d="M169.88599,259.51208c1.55884,1.10193,3.15283,2.18835,4.77588,3.25427v-45.35022c-25.63989,5.59546-32.51709,22.24097-4.77588,42.09595Z" style="fill:#2a3330;"/><path d="M135.84741,501.72083l.20557-.09229c5.15576-2.32715,9.62207-5.98169,11.68823-10.88806,3.14038-6.33069,3.42163-14.34351-.90405-20.16565-28.5603-30.99683-74.94971,56.0293-10.98975,31.146Z" style="fill:#2a3330;"/><path d="M16.46069,377.7384c8.68994-1.3573,18.50293-3.84106,26.90723-7.28088,5.41699-2.47461,18.66699-6.94104,11.14404-14.13904-4.40137-4.00928-21.55615-15.46204-33.54395-19.76123-5.44922-1.74304-13.92261-2.72803-20.96802-2.06128v42.90186c5.27832,1.34521,10.92505,1.34717,16.46069.34058Z" style="fill:#2a3330;"/><path d="M75.50488,654.10413c1.06616,13.77081,2.48193,76.68048,17.52222,46.5813,4.83545-10.26025,6.52197-19.68054,11.29346-27.9624,7.01733-24.33508,36.79419-42.13867,70.34131-51.3468v-34.29187c-13.43115,7.12256-27.37793,12.29834-37.55957,14.05737-56.72266,8.02319-66.58032-3.61523-61.59741,52.9624Z" style="fill:#2a3330;"/><path d="M112.12231,936.52051c-2.8252-8.36407-5.38696-16.05658-7.85742-24.80554-.84766-3.38745-.77441-6.1496-1.75537-9.64203-.87744-3.3172-.92944-8.81256-8.71167-12.20068-9.25854-4.03076-41.81567-7.41327-63.18677-31.13892-5.91016-6.56091-12.54028-21.43195-4.60791-31.5025,8.57275-10.88324,29.63672-8.1579,43.99683,2.97034,13.19287,10.22388,21.61938,30.55084,20.1106,25.2854-2.96655-12.37122-12.73096-38.13635-16.48315-49.93335-3.16968-14.95618-11.93335-43.0108-17.74731-59.21429-1.54248-3.91132-4.0415-7.4314-5.79199-11.26392-2.56689-5.14709-2.78223-11.75024.78735-16.41034,3.40771-3.50922,2.96997-9.31104.9563-14.0224-4.0708-9.57465-12.46655-14.42535-22.3125-10.02228-3.66895,1.73566-7.52856,3.63171-10.39941,5.21808-3.33569,1.84314-10.95483,4.26361-19.11987,5.46655v252.70923h119.71509c-2.45532-7.15741-5.08984-14.36865-7.59277-21.49335Z" style="fill:#2a3330;"/><path d="M33.94385,681.13348c.73975-.54034,1.51025-1.16345,1.9104-1.90625,1.58008-5.17352-5.11621-16.73364-10.91162-22.38031-6.09058-5.25378-15.46436-10.42981-24.94263-13.55896v50.91559c4.44238-.61621,8.75244-1.58289,12.48389-2.80426,9.28003-2.88989,16.17505-6.34949,21.45996-10.26581Z" style="fill:#2a3330;"/><path d="M115.97876,703.46149l.14966.1499c14.44092,12.96198,37.39429,5.44891,58.53345-.3385v-63.46198c-16.30029,5.32617-31.70532,13.83167-43.79126,25.68573-7.72681,7.84198-24.8772,27.26282-14.89185,37.96484Z" style="fill:#2a3330;"/><path d="M85.23804,587.44373l-.104.09668c-5.92334,5.5741,8.53345,6.29565,13.66895,6.28296,9.29102-.01782,17.69531-1.0752,27.03857-2.87781,19.64648-3.88684,33.63208-10.66614,48.82031-20.98511v-30.70862c-1.2959.13599-2.55029.30396-3.68164.49451-37.73193,7.80652-65.27808,30.04956-85.74219,47.69739Z" style="fill:#2a3330;"/></g></svg>