<?xml version="1.0" encoding="UTF-8"?><svg id="Layer_2" xmlns="http://www.w3.org/2000/svg" viewBox="0 0 667.32574 543.2005"><g id="Layer_1-2"><path d="M3.91756,460.72395l47.4095-122.45963h19.24363l47.05964,122.45963h-20.11844s-38.66234-106.12987-39.0122-107.06448l4.02356-.17508c-.69972,1.98512-39.36176,107.23956-39.36176,107.23956H3.91756Z" style="stroke:#000; stroke-miterlimit:10; stroke-width:5.36847px;"/><polygon points="24.9108 422.70832 31.90835 404.51427 87.54006 404.51427 95.5875 422.70832 24.9108 422.70832" style="stroke:#000; stroke-miterlimit:10; stroke-width:5.36847px;"/><rect x="137.31541" y="338.26433" width="18.89377" height="122.45963" style="stroke:#000; stroke-miterlimit:10; stroke-width:5.36847px;"/><rect x="145.7124" y="382.82223" width="63.15421" height="18.19404" style="stroke:#000; stroke-miterlimit:10; stroke-width:5.36847px;"/><polygon points="351.51866 460.72395 351.51866 443.23025 371.28723 443.23025 371.28723 355.75927 351.51866 355.75927 351.51866 338.26433 409.94958 338.26433 409.94958 355.75927 390.181 355.75927 390.181 443.23025 409.94958 443.23025 409.94958 460.72395 351.51866 460.72395" style="stroke:#000; stroke-miterlimit:10; stroke-width:5.36847px;"/><path d="M485.55575,462.47357c-8.51505,0-16.32976-1.51658-23.44228-4.54851-7.1156-3.0307-13.29598-7.37453-18.54421-13.03274-5.24823-5.65574-9.3017-12.33363-12.15854-20.0312-2.85931-7.69757-4.28588-16.15221-4.28588-25.36636,0-8.74685,1.54432-16.88214,4.63605-24.40463,3.08865-7.52249,7.37453-14.13996,12.85827-19.85612,5.48065-5.71246,11.8355-10.1463,19.06885-13.29536,7.22965-3.14906,15.04498-4.7236,23.44228-4.7236,5.94796,0,11.74796.90502,17.40616,2.71135,5.65574,1.81003,10.78684,4.31671,15.39515,7.52249,4.60585,3.20948,8.36709,6.85297,11.28373,10.93418l-12.59564,13.12028c-5.01582-5.13048-10.14692-8.97865-15.39515-11.54575-5.24823-2.56463-10.61422-3.8494-16.09426-3.8494-5.71616,0-11.05193,1.0801-16.00733,3.23661-4.95848,2.1602-9.27211,5.16131-12.94581,9.00948-3.6737,3.8494-6.56076,8.42751-8.65993,13.73308-2.09917,5.30927-3.14906,11.10927-3.14906,17.40739,0,6.64706,1.01969,12.68257,3.06152,18.1065,2.03937,5.4227,4.92581,10.05876,8.65993,13.90816,3.73104,3.84817,8.19201,6.79502,13.38291,8.83439,5.18843,2.04184,10.93418,3.06152,17.23169,3.06152,3.84879,0,7.63777-.52525,11.37128-1.57453,3.73165-1.05051,7.23027-2.56463,10.49647-4.54851,3.26435-1.98265,6.23833-4.31424,8.92255-6.99847l9.44658,15.39515c-2.68423,3.14906-6.32772,6.00837-10.93356,8.573-4.60893,2.56586-9.73941,4.5781-15.39515,6.0355-5.6582,1.45616-11.34415,2.1861-17.05661,2.1861Z" style="stroke:#000; stroke-miterlimit:10; stroke-width:5.36847px;"/><path d="M548.61241,460.72395l47.40981-122.45963h19.24332l47.05964,122.45963h-20.11875s-38.66173-106.12987-39.0119-107.06448l4.02387-.17508c-.69972,1.98512-39.36207,107.23956-39.36207,107.23956h-19.24394Z" style="stroke:#000; stroke-miterlimit:10; stroke-width:5.36847px;"/><polygon points="569.60535 422.70832 576.6032 404.51427 632.23523 404.51427 640.28235 422.70832 569.60535 422.70832" style="stroke:#000; stroke-miterlimit:10; stroke-width:5.36847px;"/><path d="M320.92458,357.2558c-2.74563-6.30438-7.94584-11.40585-13.85748-14.86078-5.91382-3.45275-12.66325-4.37112-19.68854-4.37112h-52.33871v122.94376h18.96837v-62.54669h33.37034c7.14073,0,14.57547-1.27627,20.43194-4.7312,5.85357-3.45203,10.14083-8.20209,13.11408-14.23717,3.24077-6.57809,3.24077-14.75552,0-22.1968ZM304.59079,369.15749c0,3.35133-1.66903,6.26847-4.21431,8.17742-2.97361,2.23021-7.84638,2.82043-11.24105,2.82043h-35.1272v-23.86582h30.20942c4.33046,0,9.58678.27756,13.18522,1.71694,3.71701,1.4868,7.18791,4.5214,7.18791,11.15103Z" style="stroke:#000; stroke-miterlimit:10; stroke-width:5.36847px;"/><polygon points="308.1038 460.96766 270.15036 394.31628 289.64579 389.92556 331.11152 461.14334 308.1038 460.96766" style="stroke:#000; stroke-miterlimit:10; stroke-width:5.36847px;"/><rect x="155.4999" y="338.31261" width="63.15421" height="18.19404" style="stroke:#000; stroke-miterlimit:10; stroke-width:5.36847px;"/><text transform="translate(79.40548 515.70978)" style="font-family:ReadexPro-Light, &apos;Readex Pro&apos;; font-size:53.17242px; font-variation-settings:&apos;wght&apos; 300, &apos;HEXP&apos; 0; font-weight:300; letter-spacing:.01001em;"><tspan x="0" y="0">Tours and Safaris cc</tspan></text><path d="M83.97615,261.70741c-2.13703-4.16377-5.16378-7.69098-8.99617-10.48381-.95604-.69628-1.96117-1.34311-3.01118-1.9379,4.5578-1.8181,9.07128-6.04178,9.50121-14.53511.29181-5.76389-1.01924-11.14126-3.89761-15.98355-2.61642-4.39605-6.52392-7.74869-11.61497-9.9654-4.96356-2.15644-11.09839-3.24987-18.23451-3.24987H.65908v112.08577h48.61193c5.83716,0,11.12898-.73182,15.72837-2.17531,4.65801-1.46254,8.70473-3.6406,12.02787-6.47391,3.36179-2.86592,5.93187-6.4675,7.63896-10.7051,1.78696-4.438,3.44038-9.71645,3.44038-18.21619,0-9.08483-2.08793-14.37885-4.13025-18.35944l-.00018-.00018ZM21.09418,225.36735h23.84196c6.01851,0,9.51861.37022,11.94653,2.39348,3.87178,3.22642,2.2462,8.53107,2.048,9.1255-.9586,2.87599-2.53783,5.29017-12.17588,5.69867h-25.66061v-17.21766ZM61.89423,294.04527c-3.15754,2.50614-7.71718,3.77671-13.55251,3.77671h-27.24754v-35.42158h26.47395c3.97931,0,7.45431.5578,10.32664,1.65708,2.74941,1.05477,4.89541,2.59132,6.37774,4.5666,1.48416,1.97967,3.08171,6.6102,3.08171,12.09839,0,4.78605-2.55139,11.01175-5.45999,13.3228Z"/><path d="M169.28316,258.07689c5.42133-3.19711,9.43893-7.55689,12.28231-13.32884,3.11651-6.32535,3.12988-14.02641.03682-21.12827-2.40173-5.51421-7.01192-10.473-12.98134-13.96174-4.79851-2.80143-10.61076-4.10625-18.2913-4.10625h-47.9924v112.08577h20.43492v-55.13274h13.3519l31.38972,55.12449,24.61042.18813-32.6944-56.15266c3.31277-.6493,6.7488-1.75646,9.85336-3.58789ZM122.77217,242.68924v-17.69705h24.77125c5.03408,0,8.61002.45155,10.93243,1.38048,3.52593,1.41052,5.16817,4.36088,5.16817,8.47978,0,2.22019-1.08317,4.30574-2.97161,5.72212-1.76553,1.32405-5.05295,2.11468-8.79412,2.11468h-29.10612Z"/><polygon points="206.18083 317.63755 278.16962 317.63755 278.16962 297.82197 226.61594 297.82197 226.61594 262.24561 269.65467 262.24561 269.65467 242.43003 226.61594 242.43003 226.61594 225.36735 278.16962 225.36735 278.16962 205.55178 206.18083 205.55178 206.18083 317.63755"/><path d="M335.80667,205.55178l-43.39357,112.08577h21.02147l12.5314-32.94365h38.21152l12.49041,32.94365h21.79012l-43.07281-112.08577h-19.57853ZM334.91694,261.16281l10.26564-29.00061c.46364,1.40081,10.0732,29.00061,10.0732,29.00061h-20.33884Z"/><polygon points="393.18451 225.36735 423.52859 225.36735 423.52859 317.63755 443.96351 317.63755 443.96351 225.36735 475.2367 225.36735 475.2367 205.55178 393.18451 205.55178 393.18451 225.36735"/><polygon points="667.32574 225.36735 667.32574 205.55178 595.33732 205.55178 595.33732 317.63755 667.32574 317.63755 667.32574 297.82197 615.77224 297.82197 615.77224 262.24561 658.81098 262.24561 658.81098 242.43003 615.77224 242.43003 615.77224 225.36735 667.32574 225.36735"/><path d="M664.27747,6.96207c-6.02025-13.69017-22.09548-4.42772-29.65329,4.24776-7.00478,6.29789-5.62769,4.03756-10.51651-1.77975-18.40176-20.19506-39.71028,7.29528-8.40614,12.57495.42828.5193-1.01154,1.24428-1.49744,1.62434-5.0088,2.70929-5.96347,8.39308-5.02318,13.633.18373,1.03614-.01997,2.07825-.64188,2.93271-4.88836,7.09983-9.56313,14.46396-13.99545,21.86027-3.32388,4.68896-4.80217-6.56999-3.66396-8.84182.21002-2.3378,1.73814-2.32685,3.48984-2.42108,8.70299-1.40319,9.09262-13.17861,1.01823-16.43397-6.27937-3.28644-11.16333.06322-16.1573.70034-3.09105-1.3966-2.91473-6.76657-5.97079-8.84133-7.82292-6.95339-21.35542-3.72347-22.83816,5.78353-.26301,8.84342,10.73088,11.04119,17.37822,13.32341,9.57297,1.72129,27.21085,20.05193,20.39292,29.02195-.6057.40413-1.01621-.09441-1.40072-.71064-3.92756-8.47293-15.82647-4.0984-21.47179,1.77121-3.75436,3.3936-10.79646,6.39409-10.20001,12.33875,2.76919,9.02974,15.21234,4.15407,21.26996,1.25174,6.21727-3.37036,9.49681-6.93702,4.96264,3.13989-1.32405,1.58537-2.1101,1.72978-1.65095,3.92119-.97152,1.97276-2.5088,8.63807-5.0862,7.00856-5.80657-3.8988-14.22205-.05663-18.78764,5.12622-3.70728,2.76276-2.26874,8.66255,2.2086,9.60812,5.12893.3486,10.3047-1.18204,14.41581-3.6079,1.68346-1.10849,2.34576-1.89909,2.01209-.04722-3.03005,15.63518-1.72138,34.21831-8.05456,47.43005-6.01975,9.87275-14.74582,7.86799-24.85978,5.7588-7.02419-1.84988-8.54146-.38707-1.19473-6.48898,3.5861-3.6406,7.73138-7.60699,9.97016-13.03538,1.38744-6.18736-2.76315-11.40692-8.2175-11.05676-13.92327,1.71021-27.33995,11.37344-25.62888,23.13395.35345,1.63263-.39545,3.11578-2.25078,2.82653-2.86587-.08829-7.17963-.11458-10.62385-.77313-.44184-.19065-.10231-.5774-.39527-1.02913-.15236-.24492-.46314-.48278-.90136-.67164-2.16849-.98232-4.59201-.68126-6.62897.50041-2.39289.24588-7.62641.14577-9.27301-1.84672-.6318-1.24235.57923-2.3563,1.60923-2.88213,10.93398-5.89358,24.70792-16.8522,25.70577-28.28216.8175-5.67488-4.37512-10.06775-9.85691-9.29375-15.84579,2.95231-51.83038,18.16563-38.11988,37.17263.15296,1.24634-1.32689,1.71323-2.42481,1.55862-5.48142-.51411-9.30415-2.45503-12.22818-7.47336-3.39321-6.31477-8.07828-11.89662-9.90238-18.9757-6.33606-16.28642,3.93479-31.4635-2.0033-46.81041-6.86689-17.22487-27.76105-12.86078-26.41551,6.87446.8235,12.07861,3.44963,17.33086,8.70189,21.8328,1.42421,1.22076-27.07003,20.09241-16.95992,37.70886,6.09486,7.97597,18.55751,3.92724,23.55963-4.32823,1.16743-2.33193,3.56637-3.20467,6.16813-2.41501,3.94808.90127,12.00268,8.59207,12.10146,12.30127-13.46096,1.52588-27.70463.92215-41.28585,3.15205-44.67572,5.55039-16.45057,5.15608-19.34433-24.2925-4.19441-33.20413-29.8923,4.50999-18.26231,24.76869,1.47972,3.78367-19.10894-.13858-23.21245-.05015-28.4097.68589-1.43105-48.64939-14.63426-67.05571-23.45823-29.49416-39.83056,41.88999-18.69171,55.7018,2.23192,2.39526,5.14677,3.89498,8.02004,6.51019,8.34287,7.95189-12.39841,2.08841-17.01464,1.0525-19.02673-4.05863-14.22448-6.11587-11.14675-25.49587,1.56565-12.26946-5.89115-43.79393-20.31919-28.43368-7.67689,9.47869,2.85669,29.73736,6.3987,43.64266,1.65652,6.1879-8.81664.93726-12.84687.02174-2.97727-1.09238-.79356-4.69129-1.86619-7.2114-4.7515-9.75707,3.08332-33.06544-13.55019-31.35292-11.72893,2.77997-7.99242,21.679,1.32009,26.53308.61316.31619,1.51647.83444.85935,1.49874-6.72405,5.42283-8.16018,5.59677-16.8922,1.80233-1.8569-4.51258-4.055-5.2142-8.94229-5.37822-4.91251-1.40691-12.1006-2.337-3.63987-7.41153,17.37132-16.8364,4.9626-34.26246-10.16543-13.26787-6.10029,8.34938-3.2372,13.14311-10.26068,5.80478-1.99923-2.20731-4.06121-4.05802-5.87736-6.50862-.66947-2.11931-2.00926-4.28363-4.4566-4.51272-1.38177-.20481-2.1138.45104-3.21945-.52527-2.84524-2.12457-7.19728-3.96262-9.30765-7.10616-2.4054-4.04573.83549-8.94416,4.95107-10.26769,13.73499-6.22942,26.17426-21.15562,20.11521-34.00585-7.9885-14.18546-21.49478-3.43178-28.89003,4.7611-19.79432,21.02342,7.34863,45.06735-26.88063,16.40391-9.12458-11.42199,26.63317-51.60124-6.97197-59.51103-2.53639-.62413-5.60402-.28902-8.45626.5623-7.64341,1.61291-13.34764,11.59064-13.89258,17.90412-2.28814-3.46636-6.27449-7.51126-11.37-7.94381-9.00994-2.40462-12.87257,5.57494-12.79603,13.26249-.1447,9.48804,5.95466,13.40343,11.26336,14.33132.90846.15803.15498.46334-.20067.64725-2.50761,1.10031-7.52154,2.56068-9.66975,4.7697-6.181,6.36129-2.2262,13.11586,3.25343,17.91788,8.45544,7.40986,22.80083,6.78841,31.4561,2.27795,3.73152-2.1541,8.7342-2.05676,12.17505.49348,2.28253,1.12708,2.38796,2.25705,1.82653,4.57756.72004,5.79294,6.76025.94902,9.57464,4.05193,2.42639,1.70438,5.62231,3.51179,6.16339,4.11584-5.72403.11158-12.2083-3.04096-17.95766-4.62864-8.85128-3.77311-19.71398-2.6951-26.1158,5.47125-3.47007,4.18225-4.02983,9.99411-1.0429,14.72354,10.98292,18.03725,29.80477,2.52256,45.79221-8.32674,7.8653-5.16959,14.35808,4.86943,20.57837,8.59554,1.00027.50635,1.10521,1.33614.05411,1.6407-19.42833,8.46447,6.81467,20.18759,16.37507,21.67669,1.61723.60785-.35322,1.8678-1.21067,2.22256-8.99735,3.91648-17.41687,16.72222-9.14457,25.07254,5.87645,6.26617,15.81263,1.62509,19.88729-4.53019,3.48934-7.37307,4.2506-17.08114.73254-24.3677.79493-.77377,2.59723,1.6613,3.39999,2.18226,2.87823,3.72803,19.84718,10.32287,26.93172,13.87318-.91917,3.42441-3.52078,8.73694-.89085,11.48054,7.25571,7.59686,15.29716-7.40631,22.49087-4.57033,2.53572.71752,10.46422,1.91334,13.53389,4.02079.62327,2.49726.59751,3.75975,3.62721,4.39409,5.78188,1.86436,5.52282-3.09711,10.78412-.51294,2.51346.73243,4.54021,1.76621,7.12784,2.28429,1.62461.37778,8.38988,2.45306,6.82434,4.90903-6.10233,2.32222-12.59851,6.07635-16.10654,14.63598-2.46632,4.84313-.91106,9.62459,2.89797,13.36545,6.7342,7.81553,16.58776,4.58417,21.31102-4.87783,1.90655-3.7361,2.13541-9.97849,1.68626-12.11941-.23071-1.09957-.46343-2.55408-.66271-3.93004-.45147-3.66678,1.98115-5.9279,5.52572-6.29786,1.74519-.18563,3.68899.25457,4.49521,1.72334,1.16691,1.63746,3.35072,2.23112,5.29423,1.90835,1.43093-.18785,2.83486-.65198,4.27073-.7638,5.89034-.27394,15.95783-.32208,21.17381.1443,4.24012-.04204,13.65866-.64801,18.00773-.37516,1.87581.03554-5.62742.75032-10.30192,4.04195-5.08807,3.58285-8.09891,10.20576-5.39753,14.10729,2.49969,3.61023,8.03581,2.93488,10.77849,1.65964,9.91806-4.61151,14.29999-14.93179,16.55096-17.55792,1.89207-2.20741,3.6967-1.67169,4.87105-1.62539,1.24226.02995,2.13932.33184,3.33377.3949,3.11312.07103,5.88964.00582,8.91246-.07804,2.96804-.11829,5.9941-.28655,8.95395-.36128.30152-.00623.56118-.00765.76713.01465.70283.0632,1.32841.89169,1.97917,1.29026,1.11591.83175,2.67742,1.77038,4.16277,2.0861,1.76086.31837,4.37828.32314,6.09998.47573,2.71827.39211,1.8916-3.66245,4.14614-3.87251,7.61061.48645,22.56077,1.48329,35.34125,2.34338-.65891.20837-1.27185.33642-1.78284.39082-4.12641.24501-10.04014.78733-13.42153,2.5937-1.84421.97985-2.33926,3.36601-1.92572,5.35649.27262,1.45677,1.03046,3.10841,2.23558,3.86097,3.68493,1.87223,9.41292.43447,12.29019-.31169,6.7627-1.51145,13.59107-6.25473,15.49843-11.01907,4.779.32451,8.21237.55999,9.2045.63199,1.59398.01795,3.14939.16052,4.72533.32863,5.36885.43525,13.11104,1.38982,18.70392,2.06998,3.6831.21634,7.1696.49121,9.08089.94541.47834.1067.96588.23612,1.40099.53128,1.10304.68259,1.37461,2.42591,2.22454,3.50051,1.32186,1.5638,3.76686,1.27588,5.4516.41157,1.23906-.68177,1.91432-1.72555,2.28586-2.16473.09594-.10231.19793-.16294.3437-.20017,3.45105-.03577,6.45715.41322,9.8515.8976,3.42573.46139,14.83819-.23754,20.81649,6.45179,5.16782,5.78245,3.85355,16.94581,3.85355,19.78489v35.85893h-50.31591v-38.42635h-20.43492v112.08577h20.43492v-53.8433h50.31591v53.8433h20.43492l-1.11632-165.22885c.11211-2.65241-.26305-7.52951-.10487-11.8565-.02052-1.83615-.09635-12.92201-.13592-17.58034.09287-1.77904-.2364-4.04965.20059-1.71458.85025,3.71724,1.10744,9.16381,3.48691,12.47108,4.39853,6.4539,12.29852,2.21557,11.52704-5.13886-.30912-13.15738-15.63119-15.97015-10.95523-26.17016,1.54397-3.20563,2.09105-7.53635,4.52978-10.09111.91537-.3317,1.78275.57092,2.29585,1.25264,4.52547,4.65693,13.70364,16.85459,20.43263,10.50304,6.57182-8.94115-8.57347-18.41554-16.75246-14.7721-1.44697.69644-3.45238,1.31524-4.64353-.14032-2.09169-3.94808,1.92398-9.18041,3.32855-12.54115,1.8737-3.0254,5.52263-.92286,4.67696-5.99138-.34622-1.94246,1.37773-3.56071,2.109-5.30563,4.2103-9.04911,9.49993,1.78488,11.77965,6.58155,13.45002,27.00031,41.62163-.53746,1.94477-13.09901-2.41189-.54914-7.82498-1.76695-6.35951-5.36006.52894-.50822,1.85437-.27871,2.2484-1.20638.72303-1.11461.00495-2.43051-.21817-3.58965.06494-1.34583,1.86463-2.54012,3.11953-3.03593,2.03398-.35284,2.88066,2.66453,4.16771,3.66469,10.61057,14.78973,36.71806,5.20799,24.60034-12.69028-3.40338-4.42069-11.20446-8.44394-12.00579-11.80361-.25169-1.33074.63666-2.93816,1.96804-3.54571,1.81499-.88746,4.29915-.50886,6.25455.03721,11.26839,3.68887,30.17747.12585,27.10502-14.32406ZM418.04479,91.50809c-.15122-1.51365-.2026-3.07655.13253-4.60413,1.23668-6.55039,7.60864-10.9501,13.00099-5.03745l.061.0624c5.84362,6.02275,6.05781,13.89376,4.69377,22.55608-.40708,1.69418-1.63364,3.09721-3.25798,3.69256-1.7032.54138-3.34077.39925-5.00106.91313-.79227.20386-1.66056,1.19892-2.35492.75687-6.84861-4.36026-6.75922-12.79486-7.27433-18.33945ZM428.54014,135.70487l-.03261.07758c-1.34279,3.34778-3.78046,6.53921-6.25587,8.39817-4.80991,3.7223-10.3009,3.92738-11.82788-.34521-1.32754-3.82836.84205-9.38928,2.69977-13.10007,9.47859-19.40204,24.66949-25.22784,18.79712-4.82864-.85176,3.12524-1.92632,6.19341-3.38053,9.79817ZM439.52775,141.34172l-.07469-.03068c-2.24034-.95073-4.4348-1.23947-6.56477-1.98654-.28742-.10332-.60927-.27079-.7331-.53554-.10387-.20736-.0904-.46804-.01282-.74895.44601-1.35675.79374-2.35708,1.18529-3.57658,2.33821-7.80048,1.89884-4.1676,4.58762,1.56.5932,1.28934,1.11316,2.57502,1.89618,3.75532.90722,1.27318,1.65882,2.43658-.28371,1.56297ZM99.45485,43.91594l-.02056-.06224c-2.0934-6.30485.41308-14.69728,8.41068-12.13935,6.91193,2.18001,10.04093,5.8563,11.87724,10.85988,1.55221,4.0581,1.99592,5.88858.12012,8.13954-1.85378,2.22454-3.96636,1.40752-6.52633,1.11777-2.06027-.24285-4.00887-.3402-6.09549-.9909-3.51049-.96779-6.89999-3.92915-7.76566-6.9247ZM126.22006,74.72407c-3.00129.75032-25.83654,4.78832-28.83098-9.24717-.51658-6.85217,14.36277-10.88692,21.17013-9.7739,1.85299.41749,4.16867.51225,5.25493,2.19608,3.39895,6.49351,4.9794,8.24081,8.4085,13.82371,1.10892,1.80543-4.36223,2.5912-6.00258,3.00129ZM147.83344,44.1724c-1.03511,4.78126-3.5781,11.2959-5.27508,16.92153-1.03269,3.42346-5.18656,4.76743-8.03098,2.60044-2.76288-2.10487-5.61586-5.14619-6.80668-9.22899-1.83453-6.28983-11.07127-28.15549,5.24514-33.25414,3.80405-.80994,6.79792.27733,9.22167,1.31296,7.44667,2.90416,7.73978,11.42448,5.64593,21.6482ZM125.35766,110.57059c-12.24668-3.53218-8.26657-15.27132-1.01341-18.58911,5.39896-2.846,12.38031-4.50193,25.88611,3.00129,2.3771,1.32061,1.99836,3.83832.37516,6.00258-4.50193,6.00258-14.25612,12.75548-25.24786,9.58524ZM170.14017,72.9156l.02268-.08172c2.68632-10.36625,9.21969-17.49641,15.25615-19.61661,1.6746-.73354,3.67206-1.00095,5.48363-.44455,3.64273.98202,5.71889,4.91775,6.06917,8.65984,1.36907,7.55953-6.49538,17.26049-14.7678,23.64724-11.27487,8.59945-15.87696.98387-12.06383-12.1642ZM195.14739,127.78128l-.04329-.01296c-3.08331-1.07149-8.31955-3.40613-11.09736-6.15791-1.13643-1.08664-2.06879-2.31638-2.61291-3.69399-.79409-1.84174-.84808-4.67878,1.31677-5.59188,1.58843-.74971,3.23351-.60182,4.4888.52745,3.53633,2.71908,7.07899,5.49317,10.69492,8.12912.8583.60621,1.93654.99476,2.55113,1.89277.53214.76891.73455,1.71776.94237,2.63436.26615,1.0038.1836,2.20753-1.07177,2.37661-1.7867.21605-3.96995.23758-5.16866-.10356ZM205.48512,147.2073c-.39739,3.34771-1.83392,6.50015-4.6575,8.42385l-.06267.04486c-2.17648,1.64029-5.23701,2.57973-7.79075,1.46705-1.65253-.84817-2.43887-2.82178-3.10911-4.65451-.39754-1.03365-.51916-2.04946-.37238-3.15824.29905-2.59661,1.66853-5.88115,2.96151-7.74061,2.61335-3.49295,8.08873-7.95815,9.84415-8.99614,3.11354-1.73927,3.24342,3.04837,3.50888,5.07092.28107,3.09792.10739,6.56091-.32214,9.54281ZM209.97891,126.64494l-.06169-.01096c-.94314-.14563-1.04984-1.22321-.69515-1.94886.3815-.98127.89138-2.14219,1.49432-3.41251.91102-1.91376,2.03705-4.04846,3.26785-6.04752,2.14196-3.53579,7.7099-11.51966,10.73831-5.06123,2.10346,5.54924-7.81577,16.20074-14.74364,16.48109ZM248.99553,113.85414c2.34142-.83085,4.93678.06717,6.69388,1.73214,1.39878,1.16996,2.1462,3.00003,2.38971,4.92213l.00952.0767c1.71495,23.44538-22.11498-.49673-9.09311-6.73097ZM254.42947,146.87385l-.04488.05233c-2.08647,2.38806-6.31471,4.90994-9.46779,5.69224-2.39974.60751-3.91593-.18454-3.85075-2.52666-.14142-7.534,9.98876-10.24303,16.21263-13.71514.67695-.34507,1.28878.02294,1.54181.67217,1.51329,3.74567-2.22459,7.02942-4.39102,9.82507ZM284.52059,141.97777c-.51237,1.6829-2.20256,6.34403-3.432,3.84392l-.02116-.04382c-3.72041-8.47556-8.23313-19.73229-6.99446-32.87219.15861-1.20271.48915-2.75494.94138-3.9226,1.05358-2.9562,3.3269-4.06847,5.58949-1.67199,1.48401,1.52587,2.60348,3.91155,3.27458,5.98284,2.17311,6.63242,3.17835,12.17559,2.41935,19.54104-.34948,3.24064-.84854,6.09889-1.77717,9.1428ZM304.32238,192.5817l-.04254.04329c-2.93357,2.77329-7.46588,4.16101-10.98623,1.90806-2.40526-1.42869-4.85621-3.91073-5.44156-6.64499-.95729-4.8537,5.10179-12.38684,9.8764-15.38719,2.43176-1.32977,6.89047-2.35964,8.42548-1.32197.20299.20575.32958.5207.43212.81726.75075,2.12441,1.19014,4.73001,1.20303,8.05925.07577,4.136-1.16593,9.82139-3.4667,12.52629ZM322.21169,147.34663l-.06415.03394c-4.50845,2.19324-9.14267-5.37569-10.9333-8.69439-4.74316-9.16208-4.95927-20.69824-2.33211-30.23442,3.74129-13.47996,12.85774-20.64819,18.24478-4.51038,2.61719,7.45901,1.80523,12.35166,1.09139,19.87955-.7515,8.3615.81844,19.42246-6.00661,23.5257ZM368.57409,156.50918c-6.72121-15.8342,11.08734-45.54416,13.13064-20.2587.25708,3.18127-.74877,10.68375-1.87581,14.63128-1.23384,3.60598-2.30015,6.30643-5.25225,8.25354-2.57149,1.77574-4.65581.01314-6.00258-2.62613ZM356.56894,186.89722c-1.50064-1.50064-1.21671-3.98996.75032-6.37774,2.39727-2.91005,4.50193-4.50193,9.75419-6.37774,1.69815-.60648,4.07359-1.70519,5.90503-1.75298,1.20241-.03137,3.98827.77833,4.18438,1.64344.79026,3.48599-6.29574,9.70582-11.2149,12.1147-4.00151,1.95951-7.74703,2.38231-9.37903.75032ZM466.11046,179.24709c-3.96896,3.18727-12.67515,5.18933-16.03832,5.07044-2.0088-.07483-3.69125-2.10277-3.48041-3.75656l.00485-.04992c.17467-2.99332,4.87141-3.21909,7.3711-3.60112,2.25596-.28558,4.09815-.40997,6.30071-.30931,1.75151.04067,8.50588.74556,5.84206,2.64646ZM471.68279,153.1298l-.07108-.03719c-10.50442-6.95239,5.15311-17.09369,13.33915-22.7576,3.31673-2.50532,16.72778-8.68464,21.30733-4.9642,2.13002,1.67501.51008,6.29787-.97546,8.70436-3.12311,5.37764-19.38857,24.36321-33.59995,19.05463ZM520.92226,158.73738l-.00495-.0724c.09599-5.51018,7.13557-10.29142,11.97245-12.80878,2.1297-1.07057,4.28729-1.88954,6.23463-2.34201,2.31256-.47463,4.4691-.77826,6.2115.50279,6.59009,7.38117-22.86797,31.14693-24.41363,14.7204ZM572.83792,111.321c-2.39944,1.65475-6.12082,2.60579-9.059,2.79708-1.62965.10332-3.08766-.02594-4.05153-.43744-.21382-.09452-.39719-.22266-.5463-.40793l-.0338-.04348c-3.14797-6.03912,11.42547-12.55844,15.167-6.44513,1.15507,1.74661.24299,3.35552-1.47637,4.5369ZM583.08414,112.79999c8.17935,6.63369,13.50607,22.84974,2.14857,17.59795l-.06924-.04314c-4.35951-3.85403-4.17119-10.97051-3.33065-17.12222.11284-.9382.549-1.04426,1.25133-.43259ZM583.20632,79.94782c-3.24804,6.63195-11.8816,8.69621-19.54446,8.64787l-.07373-.00467c-3.32516-.13423-2.9462-3.79628-1.16601-5.812,3.82044-4.08865,16.59882-16.00498,20.85455-9.05907,1.13611,1.89946.93918,4.31369-.07034,6.22787ZM595.42525,91.79365l.07217-.02411c4.90072-1.16402,10.34825.93706,13.29037,5.05735,1.52482,2.76997-.47005,5.76144-3.67431,5.22004-4.61221-.56132-6.34284-3.9892-9.58795-6.4724-.62273-.47289-1.37141-1.04518-1.4412-1.86887-.10771-.84629.50623-1.66427,1.34091-1.91201ZM565.95093,41.50661c-2.45215-.46513-4.70719-1.13425-6.70555-2.71644-1.0066-.77938-2.07213-1.86449-2.89065-2.91693-5.02011-6.33707,2.23086-10.85364,7.92702-10.30417,3.61427.16127,6.64473,2.19125,8.74612,5.08521,1.82955,2.28369,4.18191,5.49891,1.48095,8.07242l-.05028.05161c-2.41382,2.71854-4.79704,3.46591-8.50762,2.7283ZM588.27851,51.73332c-.20654,1.30638-.66487,2.58441-.79978,3.99724l-.00998.07659c-.11953,1.13096-.51182.50554-.94999-.34542-.56979-1.01493-1.23741-1.81455-1.97701-2.75859-1.90777-2.47365-3.50175-3.30929.22477-2.46774.90291.18291,1.72092.34803,2.57822.50985.28833.05296.67293.13485.8236.37168.12136.16924.13482.40282.11019.61639ZM587.64396,48.16938l-.07199-.00772c-3.26049-.35476-5.82049-.69113-8.75547-1.56428-11.1909-3.61734-.08335-8.50927,5.62586-9.23268,3.36985-.61275,6.99882-1.10508,9.62605,1.29033,2.29246,1.89717,4.62192,5.83336,1.90713,8.27053-1.8802,1.63437-5.7627,1.57989-8.33158,1.24382ZM621.6748,64.20216l.03911.02553c2.9009,1.83901,6.05066,5.53605,7.28404,8.83838,1.4968,3.78928-.78733,5.99326-4.43077,5.7352-1.83615-.36886-3.91739-1.9254-5.22487-3.13794-4.19198-4.49197-6.35814-9.12797-10.82783-13.7947-2.01429-2.60712,11.45478,1.01026,13.16031,2.33354ZM626.85607,20.42127l.03526.01305c.03032.01573.04442.03934.04287.07114-.0436.16212-.31645.72724-.56466,1.30606-.24363.54039-.46978,1.08576-.56824,1.26763-.17879.17599-.45622-.1008-.79218-.20246-.39733-.20116-1.29355-.47653-1.38396-.82382.02693-.40827,1.68108-.74517,2.15461-1.0055.35409-.20414.57822-.72818,1.0763-.6261ZM610.09079,16.86656l-.0632-.02867c-10.61405-6.05298,2.21506-15.32511,11.33827-6.60974,1.31929,1.24416,2.96914,2.60195,3.01091,4.57878.03151,1.35139-.6732,2.67524-1.95696,3.34929-.30006.16184-.6198.29014-.94798.39254-3.67724,1.10611-8.0895-.62876-11.38105-1.6822ZM636.83512,39.10832l.04543.06533c3.52602,4.76164,1.6068,9.77532-3.70133,11.35634-14.80659,4.97668-25.73947-19.40229-16.88371-24.82094,3.0883-1.45677,7.12586-.47158,9.72763,1.69567,4.09765,3.401,7.67935,7.40938,10.81198,11.70361ZM660.09245,12.24693c-1.88139,4.73025-7.75006,6.87687-13.05425,6.23412l-.09452-.00815c-4.35319-.34299-7.50551-1.30194-11.84249-1.48436-.26058-.0196-.64572-.04529-.72175-.26832-.05312-.17311.20599-.48777.36353-.66054,3.86051-4.37588,9.05076-8.78546,14.91009-10.97564,4.86235-2.08986,12.76848.90514,10.43939,7.16289Z"/></g></svg>