<?xml version="1.0" encoding="UTF-8"?><svg id="Layer_2" xmlns="http://www.w3.org/2000/svg" viewBox="0 0 1846.00004 496.18364"><g id="Layer_1-2"><path d="M1451.02553,440.92467c-36.97266,4.54144-72.83154,26.47797-81.25195,55.25897h18.58154c7.78857-11.06256,22.0874-20.25867,32.94873-25.91168,6.8667-3.45178,13.82324-6.09229,20.10205-7.55115,7.45605-1.53033,14.40918-2.50928,20.02734,1.62109,6.5708,7.35999,2.01953,19.77222-7.54199,31.84174h12.02588c4.54541-5.90204,8.60791-12.34546,11.60352-19.60956,4.47363-19.9494-8.90918-36.77838-26.49512-35.64941Z" style="opacity:.1;"/><path d="M1083.34731,470.72258c3.76416-7.51862,11.49854-10.33252,19.88721-7.7865,10.74023,2.45178,30.90625,20.48749,37.1377,33.24756h28.22949c-4.09961-3.45587-7.74414-7.89075-11.03418-13.53717-10.94043-20.36023-26.0459-38.3573-31.92725-61.18176-20.4292-52.51099,12.68652-101.44513-6.45947-150.92694-22.14014-55.53668-89.50732-41.46594-85.16895,22.16479,2.65479,38.94403,11.12207,55.87848,28.05664,70.39368,4.5918,3.93597-87.27979,64.78229-54.68262,121.58148,4.25586,5.56934,9.47559,9.31732,15.20459,11.50592h28.23145c13.01221-4.15656,25.22998-13.42072,32.52539-25.46106ZM1121.19936,450.67693c2.92529,4.10498,5.34863,7.85608-.91455,5.03937l-.24072-.09894c-7.22363-3.06537-14.29883-3.99634-21.1665-6.40503-.92676-.33313-1.96436-.87311-2.36377-1.72668-.33496-.66858-.2915-1.50903-.04102-2.41479,1.43799-4.37445,2.55908-7.59973,3.82129-11.53162,7.53906-25.15045,6.12256-13.43726,14.7915,5.02972,1.9126,4.1571,3.58936,8.30243,6.11377,12.10797ZM1051.01918,295.04186c-.48779-4.88031-.65332-9.91943.42725-14.84467,3.9873-21.11987,24.53174-35.30554,41.91797-16.24182l.19678.20117c18.84082,19.41864,19.53174,44.79645,15.1333,72.72565-1.3125,5.4624-5.26709,9.98608-10.50391,11.90564-5.4917,1.74548-10.77148,1.28723-16.125,2.94409-2.5542.65729-5.35352,3.8656-7.59277,2.44031-22.08105-14.05841-21.79297-41.25336-23.45361-59.13037ZM1026.4474,463.75645c-4.28027-12.34344,2.71484-30.27307,8.70459-42.23743,30.56104-62.5564,79.53955-81.34003,60.60596-15.5686-2.74658,10.07642-6.21094,19.96887-10.89941,31.59143l-.10547.25012c-4.3291,10.79401-12.18896,21.08386-20.17041,27.07751-15.50781,12.00153-33.21191,12.66272-38.13525-1.11304Z" style="opacity:.1;"/><path d="M1248.214,496.18364h40.28613c32.63086-19.94934,68.13525-51.54962,70.99951-84.35437,2.63574-18.29706-14.10645-32.46057-31.78076-29.96503-49.54297,9.23059-160.1416,55.63538-126.48535,114.3194h32.3457c-3.22705-.47418-6.43945-1.27216-9.61963-2.46002l-.229-.11987c-33.86865-22.41602,16.61426-55.11377,43.00781-73.37549,10.69434-8.07764,53.93408-28.00116,68.69971-16.00562,6.86768,5.40057,1.64453,20.30566-3.14502,28.06476-8.31787,14.32263-45.55029,58.5788-84.0791,63.89624Z" style="opacity:.1;"/><path d="M933.85072,439.30107c.8291,10.25708-2.41406,34.44672-6.04785,47.17438-1.19678,3.49744-2.34717,6.72577-3.62598,9.70819h13.14551c6.14111-13.62506,12.21533-33.55737,9.44531-61.74701-12.34863-97.75629-82.50391-4.8623-66.05225,61.74701h8.00977c-12.95264-52.24615,38.88574-134.10065,45.12549-56.88257Z" style="opacity:.1;"/><path d="M640.65395,419.70671c5.04785-39.55945-18.99463-141.20111-65.51367-91.67639-24.75195,30.5614,9.21045,95.8797,20.63086,140.71344,5.34082,19.95111-28.42676,3.02191-41.42139.07007-9.59912-3.52203-2.55859-15.12573-6.0166-23.2511-15.31982-31.45892,9.94092-106.61017-43.68896-101.08862-37.81641,8.96326-25.76904,69.89777,4.25635,85.5484,1.97705,1.01947,4.88916,2.69043,2.77051,4.83228-21.67969,17.48438-26.31006,18.04523-54.46387,5.8111-5.9873-14.5495-13.07422-16.81171-28.83203-17.34052-15.83887-4.53619-39.01465-7.53497-11.73584-23.89636,56.00928-54.28418,16.00049-110.4696-32.77539-42.7785-19.66846,26.92017-10.4375,42.37622-33.08252,18.71588-6.44629-7.11688-13.09424-13.08392-18.9502-20.98523-2.1582-6.83313-6.47803-13.81134-14.36865-14.54999-4.45508-.66034-6.81543,1.45422-10.38037-1.6936-9.17383-6.8501-23.20557-12.77637-30.00977-22.9118-7.75586-13.04431,2.69385-28.83789,15.96338-33.10522,44.28467-20.08502,84.39111-68.21033,64.85547-109.64227-25.75635-45.737-69.30371-11.06482-93.14746,15.35083-63.82129,67.78406,23.69336,145.30688-86.66895,52.88977-29.41992-36.82697,85.87109-166.37354-22.479-191.87646-8.17822-2.01233-18.06885-.93182-27.26514,1.81299-24.64404,5.20038-43.03564,37.37073-44.79248,57.72681-7.37744-11.17633-20.23047-24.21796-36.65967-25.61261-29.0498-7.75299-41.50391,17.97485-41.25684,42.76117-.4668,30.59149,19.19873,43.21558,36.31543,46.20728,2.9292.50952.49951,1.4939-.64697,2.08685-8.08496,3.54767-24.25098,8.25616-31.17773,15.37854-19.92871,20.51019-7.17773,42.28839,10.49023,57.77118,27.26172,23.89093,73.51465,21.88727,101.4209,7.3446,12.03125-6.94531,28.16113-6.63147,39.25488,1.59106,7.35938,3.63391,7.69971,7.27722,5.88965,14.75903,2.32129,18.67767,21.79639,3.05988,30.87061,13.06433,7.82324,5.49524,18.12744,11.32275,19.87207,13.27039-18.45557.35974-39.3623-9.80475-57.89941-14.92377-28.53857-12.16534-63.56201-8.68964-84.20312,17.6405-11.18799,13.48444-12.99316,32.22314-3.3623,47.47186,35.41113,58.15601,96.09668,8.1333,147.64404-26.84717,25.35938-16.66791,46.29346,15.70007,66.34863,27.71387,3.22559,1.63257,3.56348,4.30798.1748,5.28998-62.64111,27.29132,21.97168,65.08917,52.79688,69.89038,5.21387,1.95984-1.13916,6.02216-3.90381,7.16602-23.98389,10.44012-46.69189,40.47119-38.76709,65.77795h20.34033c-.6377-1.49396-1.21191-3.02515-1.76123-4.52753-1.28223-3.3327-1.67432-6.60791-1.20068-10.18286.96387-8.37201,5.37939-18.9621,9.54834-24.9574,8.42578-11.26202,26.08008-25.65881,31.73975-29.00549,10.03857-5.60779,10.45752,9.82861,11.31348,16.34973.90625,9.9884.34619,21.15381-1.03857,30.76813-.94727,7.97968-3.73291,15.61023-8.79541,21.55542h13.46631c11.06836-23.71606,13.4248-54.76672,2.15381-78.11169,2.56299-2.49481,8.37402,5.35638,10.9624,7.03607,9.27979,12.01996,63.99121,33.28314,86.8335,44.73016-2.00732,7.47821-6.49707,17.74689-6.55469,26.34546h54.22656c7.47949-4.25836,14.854-6.87115,21.97119-4.06543,3.59521,1.01721,10.55225,2.33301,18.06104,4.06543h95.69727c-33.87646-10.65637-21.46729-23.46967-13.04883-76.47693ZM23.81606,141.59447l-.06641-.20068c-6.74951-20.32819,1.33203-47.38721,27.11816-39.13989,22.28516,7.02881,32.37402,18.88202,38.29443,35.01459,5.00488,13.08417,6.43555,18.98608.38721,26.24365-5.97705,7.17242-12.78809,4.53815-21.04199,3.60394-6.64307-.78296-12.92529-1.09686-19.65332-3.19489-11.31836-3.1203-22.24707-12.6684-25.03809-22.32672ZM110.11293,240.92656c-9.67676,2.41919-83.30273,15.4386-92.95752-29.81488-1.66553-22.0929,46.30859-35.10181,68.25732-31.51318,5.97412,1.34607,13.44043,1.65161,16.94287,7.08063,10.95898,20.93646,16.05469,26.57019,27.11084,44.57062,3.57568,5.82111-14.06494,8.35461-19.35352,9.67682ZM162.79115,196.98003c-3.32959,11.03796-16.72266,15.37122-25.89355,8.3844-8.9082-6.78656-18.10693-16.59247-21.94629-29.75629-5.91504-20.27979-35.69629-90.77942,16.91162-107.21851,12.26514-2.61145,21.91797.89417,29.73242,4.23328,24.00977,9.36359,24.95459,36.83496,18.20361,69.79846-3.3374,15.41583-11.53662,36.42041-17.00781,54.55865ZM188.73695,325.59862c-14.51514,19.35358-45.96484,41.1264-81.40479,30.90491-39.48584-11.38855-26.65283-49.2381-3.26709-59.9353,17.40723-9.17615,39.9165-14.51526,83.4624,9.67676,7.66406,4.25793,6.44287,12.37561,1.20947,19.35364ZM251.72084,235.09569l.07324-.26349c8.66113-33.42303,29.72607-56.41223,49.18896-63.24823,5.39941-2.36505,11.83936-3.22723,17.68066-1.43329,11.74463,3.16626,18.43896,15.8559,19.56787,27.9212,4.41455,24.37354-20.94238,55.65155-47.61426,76.24384-36.35254,27.7265-51.19092,3.17218-38.89648-39.22003ZM349.0143,412.32842c-5.76074.69659-12.7998.76599-16.66455-.33392l-.13965-.04181c-9.94141-3.45471-26.82422-10.98212-35.78027-19.85443-3.66406-3.50354-6.67041-7.46851-8.4248-11.91022-2.56006-5.93817-2.73438-15.08539,4.24561-18.02942,5.12158-2.41724,10.42529-1.94037,14.47266,1.70062,11.40186,8.76691,22.82422,17.71118,34.48291,26.21002,2.76758,1.95459,6.24365,3.20734,8.22559,6.10272,1.71582,2.47913,2.36816,5.53839,3.03809,8.49371.8584,3.23645.59229,7.11761-3.45557,7.66272ZM380.16957,408.33067l-.19873-.03534c-3.04102-.46954-3.38525-3.94385-2.24121-6.28351,1.22998-3.16382,2.87402-6.90692,4.81787-11.00269,2.93701-6.17035,6.56787-13.0531,10.53613-19.49854,6.90625-11.40015,24.8584-37.14185,34.62256-16.31848,6.78223,17.89197-25.19971,52.23468-47.53662,53.13855ZM505.96742,367.09038c7.54932-2.67883,15.91748.21655,21.58252,5.58478,4.51025,3.77222,6.91992,9.67279,7.70508,15.87006l.03076.24731c5.5293,75.59296-71.30371-1.60162-29.31836-21.70215ZM523.48793,473.55309l-.14502.1687c-6.72705,7.69965-20.35986,15.83075-30.52588,18.35303-7.7373,1.95874-12.62598-.59503-12.41553-8.14655-.45605-24.2912,32.20557-33.0257,52.27295-44.22058,2.18262-1.11255,4.15527.07397,4.97119,2.16724,4.87891,12.07684-7.17285,22.66437-14.15771,31.67816ZM626.23793,428.28868c-1.12646,10.44855-2.73584,19.66418-5.72998,29.47839-1.65186,5.42603-7.10156,20.45447-11.06543,12.39362l-.06836-.1413c-11.99512-27.32709-26.54541-63.62115-22.55176-105.98706.51172-3.87781,1.57715-8.88251,3.03564-12.64734,3.39697-9.53143,10.72656-13.11761,18.02148-5.39081,4.78467,4.91974,8.39404,12.61163,10.55811,19.28998,7.00635,21.38434,10.24756,39.25671,7.80029,63.00452Z" style="opacity:.1;"/><path d="M1749.31801,36.14293c-22.58496,20.30579-18.14502,13.01794-33.90771-5.73828-59.33105-65.11328-128.03467,23.52155-27.10303,40.54431,1.38086,1.67438-3.26172,4.01184-4.82812,5.23724-16.14941,8.73535-19.22754,27.0611-16.1958,43.95575.59229,3.3407-.06445,6.70068-2.06982,9.45569-15.76074,22.89136-30.8335,46.63495-45.12402,70.48224-10.71729,15.11823-15.4834-21.18304-11.81348-28.50793.67725-7.53754,5.604-7.50226,11.25195-7.80603,28.06006-4.52423,29.31641-42.49072,3.2832-52.98669-20.24609-10.59619-35.99316.2038-52.09473,2.258-9.96631-4.50293-9.39795-21.81683-19.25146-28.50635-25.22266-22.41925-68.85449-12.00531-73.63477,18.64734-.84814,28.51312,34.59863,35.59924,56.03076,42.95758,30.86572,5.5498,87.73389,64.65179,65.75146,93.57306-1.95312,1.30298-3.27637-.30438-4.51611-2.29126-12.66357-27.31854-51.02783-13.21411-69.22998,5.71075-12.10449,10.94171-34.81006,20.61591-32.88672,39.78284,8.92822,29.11383,49.04785,13.39362,68.57861,4.03589,20.0459-10.86676,30.62012-22.36646,16.00098,10.12366-4.26904,5.11157-6.80371,5.57721-5.32324,12.64276-3.13232,6.3606-8.08887,27.85101-16.39893,22.59711-18.72168-12.57056-45.85498-.18256-60.5752,16.52808-11.95312,8.90771-7.31494,27.92993,7.12061,30.97864,16.53711,1.12396,33.22461-3.81116,46.47998-11.63263,5.42773-3.57404,7.56299-6.12311,6.4873-.15222-7.99463,41.25372-6.62939,88.86707-17.05713,128.15118h34.9165c-3.07373-22.18976-1.65332-35.77679-1.38867-43.01294-.06641-5.9201-.31104-41.66339-.43848-56.6828.29932-5.73602-.76221-13.05695.64648-5.5282,2.7417,11.98517,3.5708,29.54608,11.24268,40.20947,14.18213,20.80878,39.65332,7.14343,37.16602-16.56879-.99707-42.4223-50.39844-51.49127-35.32227-84.3783,4.97803-10.33563,6.74219-24.29883,14.60498-32.53595,2.95117-1.06946,5.74805,1.84076,7.40234,4.03882,14.59082,15.01495,44.18359,54.34283,65.87939,33.86407,21.18896-28.82819-27.64307-59.37573-54.01367-47.62848-4.66553,2.24548-11.13135,4.2406-14.97168-.45239-6.74414-12.72949,6.20312-29.59967,10.73193-40.43542,6.04102-9.75452,17.80615-2.97546,15.07959-19.3175-1.1167-6.26288,4.44189-11.48047,6.7998-17.10645,13.57471-29.17633,30.62988,5.75482,37.97998,21.22034,43.36572,87.05481,134.19727-1.73291,6.27051-42.23407-7.77637-1.77057-25.22949-5.69702-20.50439-17.28198,1.70557-1.63861,5.979-.89862,7.24902-3.88965,2.33154-3.59375.01611-7.83649-.70312-11.57379.20947-4.33929,6.01172-8.18994,10.05811-9.78851,6.55762-1.13763,9.2876,8.591,13.4375,11.81573,34.21094,47.6853,118.38672,16.79169,79.31689-40.9162-10.97314-14.2533-36.12549-27.2251-38.70947-38.05743-.81152-4.29059,2.05273-9.47321,6.3457-11.43213,5.85156-2.86133,13.86133-1.64069,20.16602.12,36.33154,11.89368,97.29834.40576,87.39209-46.1839-19.41064-44.14001-71.24072-14.27588-95.6084,13.69574ZM1550.10561,358.92302c-7.73633,5.33527-19.73486,8.40161-29.20801,9.01837-5.25439.33313-9.95557-.08362-13.06299-1.4104-.68945-.30475-1.28076-.7179-1.76172-1.31525l-.10889-.1402c-10.1499-19.47144,36.83838-40.49115,48.90186-20.78046,3.72412,5.63147.7832,10.81891-4.76025,14.62793ZM1583.14174,363.69157c26.37207,21.38843,43.54639,73.67249,6.92725,56.73956l-.22314-.1391c-14.05615-12.42621-13.44873-35.37128-10.73877-55.20569.36377-3.02496,1.77002-3.36694,4.03467-1.39478ZM1583.53578,257.76909c-10.47266,21.38281-38.30908,28.03845-63.01562,27.88257l-.23779-.01508c-10.72119-.43274-9.49902-12.23999-3.75977-18.73914,12.31836-13.18268,53.51855-51.60352,67.23975-29.20837,3.66309,6.12427,3.02832,13.90826-.22656,20.08002ZM1622.93178,295.96257l.23291-.07776c15.80127-3.75305,33.36523,3.0213,42.85107,16.30603,4.9165,8.93097-1.51562,18.57611-11.84668,16.83051-14.87061-1.80981-20.45068-12.86206-30.91357-20.86841-2.00781-1.52472-4.42188-3.36987-4.64697-6.02563-.34717-2.72864,1.63232-5.36597,4.32324-6.16473ZM1527.90053,133.82628c-7.90625-1.49969-15.17725-3.65704-21.62012-8.75836-3.24561-2.51288-6.68115-6.01154-9.32031-9.40485-16.18555-20.43207,7.19287-34.99445,25.55859-33.2229,11.65332.52002,21.42383,7.06506,28.19922,16.39587,5.89893,7.3631,13.4834,17.72968,4.7749,26.02722l-.16211.16638c-7.78271,8.7652-15.46631,11.17487-27.43018,8.79663ZM1599.8893,166.79942c-.66602,4.21204-2.14355,8.3327-2.57861,12.88794l-.03223.24695c-.38525,3.64648-1.65039,1.63-3.06299-1.11371-1.83691-3.27234-3.98975-5.85046-6.37451-8.89429-6.15088-7.97559-11.29004-10.66986.7251-7.95654,2.91113.58978,5.54834,1.12213,8.3125,1.64386.92969.17078,2.16992.43481,2.65576,1.19843.39111.54565.43457,1.29877.35498,1.98737ZM1597.8434,155.30852l-.23193-.0249c-10.5127-1.1438-18.7666-2.22833-28.22949-5.04358-36.08203-11.66309-.26904-27.43573,18.13867-29.76813,10.86523-1.97565,22.56592-3.56305,31.03662,4.16028,7.3916,6.11688,14.90186,18.80798,6.14893,26.66595-6.06201,5.26959-18.58008,5.09393-26.86279,4.01038ZM1707.56654,207.00163l.12598.08234c9.35303,5.92938,19.5083,17.84943,23.48535,28.49683,4.82568,12.21747-2.53857,19.32361-14.28613,18.49152-5.91992-1.18927-12.63037-6.20789-16.8457-10.11737-13.51611-14.48309-20.5-29.43054-34.91162-44.47711-6.49414-8.40594,36.93311,3.25726,42.43213,7.5238ZM1724.27162,65.84258l.11377.04211c.09766.05072.14355.12683.13818.22937-.14062.52271-1.02002,2.34479-1.82031,4.211-.78564,1.74237-1.51465,3.50073-1.83203,4.08716-.57666.56744-1.47119-.32501-2.5542-.65283-1.28125-.64856-4.1709-1.53644-4.4624-2.65619.08691-1.31635,5.42041-2.40259,6.94678-3.24194,1.14209-.65814,1.86475-2.34778,3.47021-2.01868ZM1670.21693,54.38145l-.20361-.09247c-34.22217-19.51611,7.1416-49.4115,36.55713-21.31122,4.25342,4.01147,9.57275,8.38922,9.70752,14.763.10156,4.35718-2.17041,8.62555-6.30957,10.79883-.96729.52179-1.99854.93549-3.05664,1.26562-11.85596,3.56635-26.08203-2.02722-36.69482-5.42377ZM1756.44643,126.09367l.14648.21063c11.36865,15.35254,5.18066,31.51776-11.93408,36.6153-47.73926,16.0459-82.98926-62.55719-54.43652-80.02808,9.95752-4.69696,22.9751-1.52051,31.36377,5.46716,13.21191,10.96558,24.76025,23.88947,34.86035,37.73499ZM1831.43324,39.48674c-6.06592,15.25134-24.98779,22.17255-42.08984,20.10016l-.30469-.02625c-14.03564-1.1059-24.19971-4.19775-38.18311-4.78595-.83984-.06317-2.08154-.146-2.32666-.86511-.17139-.55811.66406-1.57269,1.17188-2.1297,12.44727-14.10883,29.18164-28.32623,48.07324-35.38782,15.67725-6.73816,41.16846,2.91833,33.65918,23.09467Z" style="opacity:.1;"/><path d="M765.86,297.93248c-75.63428-95.09558-128.42236,135.06238-60.26611,179.59467,6.50293,6.97888,14.8042,11.60852,23.17969,18.65649h47.10791c-23.30469-42.96466,23.49902-151.52118-10.02148-198.25116ZM761.39906,399.22545c-2.42334,26.95929,2.63867,62.62225-19.3667,75.85199l-.20703.10944c-14.53613,7.07147-29.47754-17.3324-35.25098-28.03259-15.29297-29.54053-15.98975-66.73566-7.51953-97.48236,12.06299-43.46228,41.45605-66.57422,58.8252-14.54242,8.43848,24.04944,5.82031,39.8244,3.51904,64.09595Z" style="opacity:.1;"/></g></svg>