<?xml version="1.0" encoding="UTF-8"?><svg id="Layer_2" xmlns="http://www.w3.org/2000/svg" viewBox="0 0 115.54211 627.78834"><g id="Layer_9"><path d="M53.04991,103.60474c2.90344,1.91467,6.05275,5.18209,9.07818,6.74379,2.45826,1.26894,11.31213,3.39169,11.67195,3.89065.98998,1.3728,4.57662,14.70747,5.70629,17.63761,2.09766,5.44094,5.01199,10.69509,7.26255,16.08135-2.60726.44482-5.34928.71641-7.52192-.77813l1.03751,6.74379-10.11569-4.4094c2.90267,2.84773,9.45424,2.76399,10.89382,6.74379,2.64368,7.30863-.67117,24.42286.51875,32.68146,1.66506,2.08783,16.09866,8.91638,16.08135,10.37507-.00132.11155-1.27682,1.48796-1.81564,1.29688l-23.60327-5.44691c2.84162-5.29668,3.63445-8.93778,3.11252-15.04384-.20966-2.45275-5.74064-23.22222-6.74379-24.90016-.96742-1.61818-6.00339-4.16578-7.52192-5.96566l3.3719,3.89065c-4.27348,1.58875-5.81186-1.95128-8.55943-4.4094-.96736,2.22534,4.13865,3.74972,3.89065,5.44691-.57827,3.95731-2.63598-.71012-2.85314-.77813-.85517-.26782-6.15382,4.66424-7.00317,3.3719l1.81564-23.08452c-1.96575,5.16002-2.75694,40.87915-6.22504,42.01901-.32033.10528-6.43509.13564-6.74379,0-1.18555-.5209-3.36244-22.71273-3.3719-25.67829l-3.11252,1.55626c-.9981-1.93656,3.51445-8.14558,4.66878-10.63444,6.98016-9.97218,11.94551-25.09039,12.1907-37.35023-1.64143,13.39959-6.57536,25.24293-12.1907,37.35023-.65745.93927-4.99818,7.19418-5.44691,7.26255-3.58377.54601,4.3224-9.46016,4.92816-10.63444,5.98024-11.59287,9.78496-24.83784,12.45008-37.60961,3.03192-1.45323,4.55767,14.29338,4.66878,15.82197.90434,12.44208-.32678,26.16811-.77813,38.64712l1.81564-10.11569c.81573-13.65381-.87363-27.15883-1.55626-40.72213ZM50.71552,116.57357l-.51875,16.6001c1.85129-1.26198,1.78906-16.56227.51875-16.6001ZM48.12176,119.68609c-2.92078,10.67185-7.29669,21.12479-8.81881,32.1627l4.92816-16.34073,3.89065-15.82197ZM48.12176,127.46739c-2.31501,9.76073-4.6846,19.5204-7.7813,29.05018,2.87758-4.3315,3.60684-9.38705,4.92816-14.26571,1.23411-4.55668,3.28719-10.05372,2.85314-14.78447ZM48.64051,136.2862c-.63449,5.89793-3.11636,12.22845-2.59377,18.15636,1.05225-5.90347,3.07549-12.09014,2.59377-18.15636ZM66.79687,149.77378c-.79664.89121,1.60696,2.80573,2.07501,2.59377.83114-1.45988-1.53474-1.55042-2.07501-2.59377Z"/><path d="M56.68119,67.29201c-1.03457,1.52854-8.00373,7.61329-9.59694,7.7813-4.13988.43657-2.12158-3.16352-4.92816-5.44691,9.15076-2.18261,15.0133-11.61094,15.82197-20.49075-1.25138,5.33245-8.28066,20.36384-15.04384,18.67512-4.336-1.08267,4.09061-3.77291,5.18753-4.66878,2.72865-2.22853,3.97064-4.85564,5.44691-7.7813,1.31765-1.94139,2.87753-3.66538,2.85314-6.22504-1.75233,1.57503-1.95275,4.44065-2.85314,6.22504-.67274.99121-11.65401,14.00554-12.96883,8.55943-.22615-.93672,5.53947-3.09678,6.48442-3.89065,4.46067-3.74753,8.62755-11.21857,8.81881-17.11886-2.62363,8.07983-6.56978,16.90189-15.5626,19.19387-2.61779-2.1515,3.39557-3.1908,5.18753-4.66878,3.71088-3.06067,8.73388-10.24637,8.30005-15.04384-1.60065,6.16437-7.61893,15.36092-14.00634,17.11886-1.53319.42196-3.7088-.83887-4.92816.25938,9.5736.86152,5.39711,26.00567,2.07501,29.56894-1.84989,1.98418-2.97243.78172-3.11252,1.03751-.33039.60325,1.08864,1.43661,1.03751,1.55626-.89054,2.08403-14.00634,13.01594-14.00634,14.00634.50872.88839,11.09504,9.5808,6.22504,8.30005-2.07684-.54618-12.41868-13.9876-15.04384-16.08135l1.55626-.51875,4.92816,4.92816,13.22821-13.22821c1.16793-19.98047-9.32745-47.8642,20.75013-47.7253-3.37723-1.73636-7.75396-13.12133-4.92816-15.82197,3.32889-3.18145,1.18262,4.77203,1.29688,5.96566.16933,1.76885,1.55912,4.7134,2.59377,6.22504,2.47953,3.62266,7.51603,3.79181,6.48442,8.55943l1.03751-3.11252c1.4525-.3477,2.48716.56756,2.85314,1.81564,1.18797,4.05125-2.63967,18.28263-5.18753,22.04701ZM55.12493,63.66074c-2.55334,3.55599-6.3096,6.58171-10.37507,8.04068,5.0764.31361,8.53295-4.47661,10.37507-8.04068,3.92492-5.46617,5.53265-12.62583,5.44691-19.19387-1.6476,6.38697-2.38783,13.27526-5.44691,19.19387Z"/><path d="M68.61251,95.82344l-17.11886-10.11569c15.8759-5.73451,19.60094-25.20569,18.67512-40.20338,22.69884,6.1776,7.89145,30.04286,13.48758,42.27839.4397.96137,12.35276,10.01584,13.22821,13.22821,1.64238.17021,4.75911-6.25767,5.44691-2.85314l-16.6001,13.48758c-.0435-2.34255,6.40156-5.01903,6.22504-6.74379-.12003-1.17283-13.36546-14.02796-15.04384-18.15636-2.52375-6.20779-2.61188-15.9195-4.4094-22.56577l-3.89065,31.64395Z"/><path d="M56.68119,67.29201c2.28925-3.4075,4.41602-6.43013,5.18753-10.63444.56001-3.05175-.01745-12.1256.51875-13.48758.08174-.20761,2.94187-1.57726,3.63127-2.59377,3.51783-5.187,6.17099-9.48465,5.18753-16.08135-2.10119-14.09407-23.96646-10.78973-17.89699,3.89065.88085-7.78275,14.22811-10.07067,15.30322-1.29688,1.20032,9.79558-8.67292,22.79774-14.52509,11.41257-2.57552-5.01058-3.79462-19.39552-3.63127-25.15953,6.01572-3.74117,12.30108-4.3328,18.67512-1.03751,2.60303,6.20552,5.61908,12.89783,3.3719,19.71262,2.20324-2.71587,3.72451-7.20709,2.85314-10.63444-.33941-1.335-3.60082-3.80513-3.63127-4.15003-.0133-.15066,1.55935-1.80707,1.55626-2.59377-.06661-16.95181-26.73412-16.384-30.60644-2.59377-.72246,2.57285.27022,10.58522-.25938,10.63444-4.62683.43001-1.17741-11.81804.25938-14.26571,6.75111-11.50104,28.2512-11.58733,31.64395,2.07501.63226,2.54606-.20061,5.8793,0,6.74379.41632,1.79406,3.66468,3.36638,3.11252,8.81881-.33031,3.26171-8.37627,13.41164-10.89382,16.6001-.29556.37433-2.69916.4995-3.11252,1.55626-.49039,1.25369-.04169,10.19039-.51875,12.96883-.95104,5.53887-5.23676,16.32977-10.11569,19.45325-1.85374,1.18676-8.24205,4.04644-7.52192-.25938,6.0296-1.3473,8.23933-4.35489,11.41257-9.07818ZM59.53433,11.78541c-.8687.11346-9.07272,3.96138-6.74379,5.18753,4.78751-3.40685,11.57687-4.8501,16.34073-.77813-1.77273-3.54974-6.04375-4.87348-9.59694-4.4094Z"/><path d="M37.74669,182.97399c.78505-.27669,7.766-.24525,8.04068.77813-2.93636,4.2305.53014,8.52587.25938,12.70945l-24.12203-2.33439c-.53708-1.49166,10.46535-5.79585,12.1907-6.48442.53402-.21312,1.62544-1.94845,2.07501-2.07501,2.20304-.6202,5.01044.6326,7.26255,0-.48915-.21694-9.69615-1.18757-5.70629-2.59377Z"/><path d="M53.04991,102.56723c-1.24824-.94977-2.48587-2.65982-3.89065-3.63127l-.25938,1.03751c-3.77257,8.63046-9.89412,37.91461-17.63761,44.3534-.735.61116-1.71523,1.08019-2.33439.25938-.68807-.91217,8.94372-17.62269,10.11569-20.49075,3.71407-9.08915,5.91085-18.97919,9.07818-28.27205,3.84031,3.22097,8.68387,7.94273,12.96883,10.37507,2.13723,1.21319,13.36504,4.24347,11.67195,6.48442-2.25363,2.98286-17.38581-8.34525-19.71262-10.11569Z"/><path d="M48.38113,87.00464c1.85251,2.83656,9.66119,8.49868,12.70945,10.37507,2.32736,1.43263,14.44095,4.41404,8.30005,7.26255l-13.22821-6.48442c2.15944,3.49867,16.85483,7.03523,16.08135,10.37507-1.02405,4.42175-22.09569-10.9597-23.60327-13.22821-5.68147-8.54914,5.64704,2.2668,6.48442.77813-1.86394-.80405-10.20111-7.16718-6.74379-9.07818Z"/><path d="M69.13126,45.50438c.4763,9.53902-.07711,19.21511-4.66878,27.7533-2.84596,5.29205-10.17406,13.57972-16.6001,10.63444.15115-.30234-1.05639-.80025.25938-1.55626,16.30992-2.58397,19.43475-23.88446,19.45325-37.60961.85148-1.00605,1.47085.7616,1.55626.77813Z"/><path d="M65.24061,43.94812c2.02573-.63792,1.4025,8.11366,1.29688,9.59694-.53761,7.55016-5.29952,22.28795-12.1907,26.19704-1.84199,1.04489-8.80144,3.40615-7.7813-.51875,9.01244.17871,15.32278-12.38153,16.85948-19.972.42984-2.12319.6052-14.92205,1.81564-15.30322Z"/><path d="M8.17776,99.97347c2.92899.40124,4.7169,3.82731,6.74379,5.18753,1.66208,1.1154,2.48965-.07732,2.59377,0,.92772.68895-.63288,2.04104-.25938,2.85314.43381.94322,6.75962,5.11743,8.30005,5.70629-2.7781,1.16091-4.78314-1.09509-7.00317-2.33439l1.03751,7.7813-3.11252-5.18753-2.85314,4.4094c-2.0444-2.58181,5.15626-8.9867,2.85314-9.59694-1.6715-.44288-6.29743,5.74654-7.7813,6.74379l-1.29688-.25938,5.70629-6.22504-6.22504.51875,7.26255-3.11252-5.96566-6.48442Z"/><path d="M107.25963,97.89845c5.22341-.96665-5.74305,7.05705-7.00317,7.52192l7.52192-.77813.51875,1.03751c-7.39676,1.71117-.51145,2.74184-.51875,7.26255-.97435-1.12752-9.03121-8.34927-9.59694-5.44691-.12263.62913,5.18278,6.01059,3.3719,7.52192-1.45834-3.4559-2.14969-1.15275-3.63127,1.03751-1.3942.30624,1.6582-6.6753-1.03751-7.26255-.42536-.09266-7.57499,6.14795-7.52192,3.3719,3.90921-1.27075,15.44231-13.81145,17.89699-14.26571Z"/><path d="M69.13126,10.74791c-4.14026-2.62651-5.05628-4.17441-10.37507-4.15003-9.76063.04474-10.12195,7.58454-15.30322,14.00634-.67992-13.39816,18.98376-24.11011,25.67829-9.85631Z"/><path d="M68.61251,96.34219c1.34214,1.09354,2.1916,1.58019,1.29688,3.63127-4.51803,1.27392-20.41847-13.58226-21.52826-12.96883-.48818-.74751-1.19832-1.70981-.51875-2.59377,4.61177,5.33732,16.32303,8.32426,20.75013,11.93132Z"/><path d="M70.16877,45.50438c.92582,14.99769-2.79922,34.46887-18.67512,40.20338l17.11886,10.11569v.51875c-4.4271-3.60706-16.13836-6.59401-20.75013-11.93132-1.0977-.24895-.0116-.49555,0-.51875,6.42605,2.94528,13.75415-5.34239,16.6001-10.63444,4.59167-8.53819,5.14507-18.21428,4.66878-27.7533.31324.06063.75512-.07685,1.03751,0Z"/><path d="M53.04991,102.56723c-.87381,1.12834-.00261.9857,0,1.03751.68262,13.5633,2.37199,27.06832,1.55626,40.72213l-1.81564,10.11569c.45135-12.47901,1.68247-26.20503.77813-38.64712-.1111-1.52859-1.63686-17.2752-4.66878-15.82197l.25938-1.03751c1.40478.97146,2.64241,2.6815,3.89065,3.63127Z"/><path d="M58.7562,7.11664c1.7234-.0102,6.60767.82923,7.00317,3.11252-5.24414-2.45783-10.70143-.64296-15.30322,2.07501.92303-3.48872,4.58241-5.16552,8.30005-5.18753Z"/><path d="M69.13126,10.74791c.14857.31632-.14624,1.20763,0,1.55626-6.37404-3.29529-12.6594-2.70366-18.67512,1.03751.01598-.56397-.23775-.13891,0-1.03751,4.60179-2.71798,10.05908-4.53284,15.30322-2.07501-.3955-2.28329-5.27977-3.12272-7.00317-3.11252v-.51875c5.31879-.02438,6.2348,1.52352,10.37507,4.15003Z"/><path d="M39.30295,176.2302c.50845-.21471,7.00534-.24935,7.00317.77813l-7.52192,1.29688c-.66228-.34313-.1831-1.77863.51875-2.07501Z"/><path d="M38.7842,178.82396c.35465-.17049,5.7262-.53069,5.44691,1.29688-.9126.43424-7.97474-.0817-5.44691-1.29688Z"/><path d="M38.26545,180.89898l7.52192.77813c-1.53307.01601-7.31764,1.31811-7.52192-.77813Z"/><path d="M36.96856,140.95497c5.61535-12.10731,10.54927-23.95064,12.1907-37.35023-.2452,12.25984-5.21054,27.37805-12.1907,37.35023Z"/><path d="M48.12176,119.68609l-3.89065,15.82197-4.92816,16.34073c1.52212-11.03792,5.89803-21.49085,8.81881-32.1627Z"/><path d="M48.12176,127.46739c.43404,4.73075-1.61903,10.22779-2.85314,14.78447-1.32132,4.87866-2.05058,9.93421-4.92816,14.26571,3.0967-9.52978,5.46629-19.28945,7.7813-29.05018Z"/><path d="M48.64051,136.2862c.48173,6.06622-1.54152,12.25289-2.59377,18.15636-.5226-5.92792,1.95928-12.25843,2.59377-18.15636Z"/><path d="M50.71552,116.57357c1.27031.03783,1.33253,15.33813-.51875,16.6001l.51875-16.6001Z"/><path d="M66.79687,149.77378c.54027,1.04335,2.90615,1.13388,2.07501,2.59377-.46806.21196-2.87165-1.70256-2.07501-2.59377Z"/><path d="M55.12493,63.66074c3.05908-5.91861,3.79931-12.8069,5.44691-19.19387.08574,6.56804-1.52198,13.7277-5.44691,19.19387Z"/><path d="M55.12493,63.66074c-1.84212,3.56406-5.29867,8.35428-10.37507,8.04068,4.06546-1.45897,7.82172-4.48469,10.37507-8.04068Z"/><path d="M53.56867,55.36069c.90039-1.78439,1.10082-4.65001,2.85314-6.22504.02439,2.55966-1.5355,4.28365-2.85314,6.22504Z"/><path d="M59.53433,11.78541c3.55318-.46408,7.8242.85966,9.59694,4.4094-4.76386-4.07197-11.55322-2.62872-16.34073.77813-2.32893-1.22615,5.87509-5.07407,6.74379-5.18753Z"/><path d="M7.97892,290.54267c.67551-1.58664-2.38844-3.51388-2.31487-4.34039.28409-3.19147,21.66646-18.21329,25.75296-19.96578,3.7168-1.59394,11.20691-.62486,12.44244-5.49782,1.86182-7.34306-5.71089-13.82382-7.8127-20.5445l.28936,15.33603c-1.93413,3.86539-2.36567-11.81016-2.31487-12.7318.05625-1.02062,1.70369-3.28094,1.73615-3.47231.52504-3.09534-1.48644-4.0068,0-6.3659,3.60729-5.72506,18.28107-3.71978,23.72745-1.73615-6.73735-4.00986-16.87112-4.67518-23.43809.28936-.18406-.78589,2.94139-3.359,3.18295-3.47231,5.62435-2.63826,13.66513-1.73191,19.38706,0,.90842.27496,3.24702,2.87573,3.47231,2.89359,1.93143.15316,7.69275-9.76763,10.70629-10.12757-2.02762-4.32875,3.61875-3.43149,4.05103-1.15744.54768,2.88117-5.85379,4.09949-5.78718,5.20846l14.46796,26.04232-15.33603-25.17424c-6.90827,3.86526.03957,12.146,1.4468,18.22963,1.19264,5.15595,1.30836,11.50495,2.31487,16.78283l-8.39141-29.80399c-5.10862,3.02376-.95026,7.58727-.28936,11.86372.89086,5.76444,1.48271,11.5875,2.31487,17.36155-5.46601,2.24921-1.78796-14.29832-4.34039-18.22963l.86808,17.65091c-.39933.79752-1.57528-.14197-1.73615-.57872-1.98732-5.3953-.17955-17.45995-1.4468-23.43809-.41842,10.30574-8.8961,17.3492-7.8127,27.48912,4.87252,1.5045,28.19306,7.07949,32.11886,6.07654,1.03104-.26341,15.08441-13.72333,15.33603-14.75732.66244-2.72217-4.81634-10.59502-3.76167-14.1786,2.44171.86015,4.96441,11.16768,6.94462,10.41693l6.3659-13.31052c1.43857,3.56067-3.44667,8.32774-3.47231,12.15308l8.68077-9.83821c1.58776,2.10912-6.316,9.57133-6.07654,10.12757,1.79515.64509,5.1097-1.84327,5.78718,1.15744-9.3229-.36741-12.11333,9.03814-17.36155,15.04667-1.35089,1.5466-10.50072,11.62891-11.28501,11.86372-3.55705,1.06496-15.94426-2.96103-18.51898-1.73615l-6.94462,22.57001c-18.83545,2.51013-20.2231-8.68536-21.70193-24.01681.39802-.62202,5.88385,3.06737,7.23398,3.18295,5.72259.48987,12.4602-4.57919,9.54885-10.70629-4.80442,9.05281-10.91427,9.24316-16.49347.86808-1.58686.51056,4.477,8.50754,10.99565,6.94462,2.5469-.61065,3.3086-4.39338,5.49782-4.91911-2.75588,9.66264-14.0941,8.22683-17.65091-.28936.69508,16.42443.75014,33.04508,22.57001,30.09335.9115,3.41611-10.06073,1.64571-12.15308,1.15744-16.41264-3.83006-9.4711-19.04936-11.28501-31.54014-.09614-.66206.11859-2.11097-1.15744-1.73615,1.20205,9.69568-3.08902,28.19857,7.8127,32.69758,2.55606,1.05485,16.87364,2.31084,16.49347,3.76167-9.59409,2.97506-19.20703-1.68994-27.19976-6.3659,2.42144,2.81162,7.13867,5.58196,10.70629,6.65526,3.32083.99905,14.94277,1.34635,15.62539,1.73615.7686.43891.15653,2.00397-.57872,2.31487-4.15306,1.75612-26.32366-4.19076-27.48912-8.97013-.59633-2.44547,1.17132-21.28007-1.4468-23.43809l-22.28065,14.46796ZM45.30624,233.82828c-1.54493.1399-5.27725.93177-6.3659,2.31487,6.58075-1.94221,12.27773-1.29146,18.80834-.28936-3.71968-1.81404-8.35653-2.3955-12.44244-2.02551ZM44.14881,237.30059l-4.91911,2.02551c.11394.46101,8.99879-1.07148,8.97013-2.02551h-4.05103ZM47.0424,239.61547l-8.39141,3.76167c2.08057-.20084,8.90411-.60904,8.39141-3.76167ZM49.35727,240.7729c-.17703.05843-1.14573.86773-.57872,1.15744,2.87195.44907,4.23662,1.97364,6.07654,3.76167.37484-3.21678-2.2486-5.99155-5.49782-4.91911ZM45.88496,243.08778c-.59736.06981-5.39402,2.13055-4.91911,3.18295l7.23398-2.02551c1.0052-1.60817-1.65158-1.23495-2.31487-1.15744ZM47.62112,245.98137c-1.09032.0597-3.85802,1.54391-5.20846,1.73615-2.19554,2.63469,9.85641,1.76961,11.28501,1.4468-1.03292-2.77082-3.33941-3.33282-6.07654-3.18295ZM41.83393,265.07907c-2.03078,5.04254,7.72556,8.72896,10.70629,4.34039-2.05639-.87656-3.56763,1.81708-6.65526.86808-.66627-.20478-4.08666-3.92602-4.05103-5.20846Z"/><path d="M26.4979,312.53397c7.0632,12.69628,23.97658,11.87543,35.88053,7.8127.51748.32887,3.74294,10.22055,4.05103,11.57437.03523.1548-1.49168.82525-1.15744,2.31487,1.1847,5.27989,6.13561,19.20497,5.78718,23.72745-.07177.93151-.14789,2.22137-1.4468,2.02551-2.60525-.39282-7.14642-20.76313-9.83821-23.72745-.19663,7.48876,10.57702,18.48952,2.89359,23.72745-3.76667.10449-5.52771-19.49911-5.20846-22.57001l-1.15744,5.78718c-1.20088-.60422-2.86084-6.2561-4.34039-4.91911l-.86808,7.23398c-4.1026-5.65681-3.84768-11.29426-6.94462-.57872l-3.47231-6.94462-2.89359,6.94462-1.73615-8.68077,2.02551,23.43809c-1.24263,2.02766-3.86863.23467-4.62975.28936l-.28936-24.30617c-2.18994,3.14062-.65025,22.17461-2.02551,23.43809-.49321.45313-5.08652-1.49021-5.20846-1.73615-2.26133-4.56088,2.95025-19.42182,3.76167-24.59553-4.2871,7.51895-4.31267,15.97104-4.91911,24.30617-12.2222.16344-.54444-14.41116-.57872-21.12322v8.68077c2.59729-3.84487,1.76115-9.12524.57872-13.31052l-5.78718,16.78283c-.36711-5.66184,1.23615-10.94506,1.73615-16.49347.05028-.55795,1.98804-3.71038,0-3.76167.24132,2.93602-11.57082,24.92304-9.25949,13.31052.98433-4.94544,12.43269-23.44857,15.04667-28.64655Z"/><path d="M30.54892,360.56761c-.69217-.04846-3.00323-1.76032-3.18295-1.73615-.97376.13055-1.67088,3.29104-2.89359,2.89359-.73173-.23807-.76451-2.78367-.86808-2.89359-7.05708-7.49889-.75363,15.49484-.57872,16.49347,1.58724,9.05731,2.77646,18.19289,4.62975,27.19976l-.64979.20162c.32779.62393.56544,1.27245.75547,1.93396.7655.26054.7648.66194.25715,1.14613.11232.68779.17605,1.38873.14864,2.11467.00495.04323-.00495.08265-.00099.12561,1.13822.12631,2.82817,2.34129,4.11927.2652-2.37944-15.98441-3.95241-31.60146-1.73615-47.74426Z"/><path d="M69.42519,405.52891l-1.83831-.68935c.6998-.476,1.44906-.78429,2.23519-.96839.2108-.7104.47261-1.40088.79051-2.06437l-1.86826-.43955.57872-39.35284c-.80859-.83572-1.62002-3.9849-3.18295-3.76167-.80139.1143-1.67922,2.68208-2.31487,2.89359-2.6664.88701-3.06879-3.42342-4.34039-.28936,1.5084,14.68399,6.03613,28.40707,5.20846,43.40387-.00862.15556-.77582,1.32062-1.132,2.43101,1.57071-.28922,3.26094-.33076,5.06887-.02911.20967.03504.42217.05157.63198.08477.03843-.40889.09226-.81538.16305-1.21861Z"/><path d="M26.4979,312.53397c.76795-1.52708.93581-2.69443,2.31487-5.20846,8.38998,8.00289,20.8633,8.11023,31.8295,8.39141-8.56586,3.36153-19.03445,2.74103-27.48912-.86808l-5.20846-4.62975c3.43784,8.27858,16.77577,8.9237,24.30617,8.68077,1.02287-.033,9.94786-3.33093,9.54885-.28936-.10253.78156-6.74047,2.98718-7.8127,3.18295-10.78373,1.96891-20.20802-1.3294-27.48912-9.25949Z"/><path d="M68.74433,218.78161c-.26833.86574.87504,1.43657.57872,2.60423-.47387,1.86729-2.73334-1.2317-2.89359,0-.02464.18939,1.75073,1.53321,1.73615,1.73615-.02936.40867-5.09652,5.99391-5.49782,6.07654-.45787.09428-6.70695-3.19559-8.68077-3.47231-5.21133-.7306-10.22155-.17029-14.75732,2.31487-8.26282,4.52723-4.02404,5.3983-4.62975,11.28501-.04407.4283-1.65961,3.92873-1.73615,5.20846-.03981.66555.61601,17.77271-1.15744,9.83821-.43935-1.96567.03016-9.23499.57872-10.99565-4.28044,1.46651-2.19767,9.10213-2.60423,12.44244-3.11192-3.70926-.6805-14.2468.86808-18.80834,4.26326-12.55799,11.46241-15.2947,24.01681-15.33603,1.33357-.00439,7.68806,1.81947,8.10206,1.73615.39186-.07886,4.47374-3.69833,6.07654-4.62975ZM47.0424,222.83264c-2.48733.26265-6.59379,1.51258-8.10206,3.47231,7.95939-3.86216,16.56865-2.66424,24.59553.28936-4.43915-3.39952-10.99679-4.3421-16.49347-3.76167ZM65.56138,223.41136c-.3747-.04966-1.38612,1.62916-.57872,1.73615.3747.04966,1.38612-1.62916.57872-1.73615Z"/><path d="M52.82958,339.73373c2.2761,3.28447,10.37684,21.23998,3.47231,21.99129-5.89663.64164-4.64439-21.71144-3.47231-21.99129Z"/><path d="M40.6765,339.73373c2.86428,2.66087,7.70775,26.08591,0,21.41258-3.8217-2.31716-1.72804-17.40216,0-21.41258Z"/><path d="M46.46368,340.31244c1.60396-1.09436,6.45513,18.28138,5.49782,19.96578-9.23296,7.79767-6.78556-19.08717-5.49782-19.96578Z"/><path d="M28.81277,307.3255c.30068-.54815-1.23406-1.80272.86808-2.89359,8.11881,7.62278,19.53848,5.97418,28.93591,8.10206,7.14125,1.617-10.16887,2.02256-12.15308,1.73615-6.18311-.89249-12.07884-4.335-17.65091-6.94462Z"/><path d="M70.19113,226.88367c1.96821.25599,7.57982,19.30316,8.68077,21.99129-3.11329,1.78859-7.10858-18.92122-9.25949-20.25514l6.65526,19.96578c-2.95486-.05966-8.7571-17.4756-8.68077-18.51898.06177-.84444,2.40032-3.20947,2.60423-3.18295Z"/><path d="M30.83829,300.9596c.75694-.17289,10.35768,6.02982,13.88924,6.94462,1.89207.49011,15.33565,1.61327,15.33603,2.60423-4.18086,3.70339-30.19708-3.96557-30.67207-7.52334-.01647-.12336,1.19217-1.96736,1.4468-2.02551Z"/><path d="M25.62982,305.58935c1.01136.01251,1.38326-.03401,2.02551.86808.30281,1.16481-21.36927,4.68466-19.38706,11.28501l-3.18295-2.60423-3.76167,17.07219c-.79853-3.29518.71493-16.09426,2.60423-18.22963.77091-.87131,20.53863-8.40581,21.70193-8.39141Z"/><path d="M20.71072,331.63167c-.49745,3.17617-2.56633,7.04925-2.89359,10.12757-.34932,3.28572,2.43119,13.4999-2.02551,12.44244-6.40858-6.22099,1.76172-16.08374,4.91911-22.57001Z"/><path d="M33.44252,359.98886c-.14717.01057-2.67434.59406-2.89359.57872-.69221-.04842-3.00328-1.76025-3.18295-1.73615-.97381.13057-1.67097,3.29112-2.89359,2.89359-.73182-.23795-.76456-2.78359-.86808-2.89359,2.6855-1.01231,1.09914-.9349,1.15744-1.73615.60644-8.33513.632-16.78722,4.91911-24.30617-.81142,5.1737-6.023,20.03464-3.76167,24.59553.12194.24594,4.71525,2.18928,5.20846,1.73615,1.37526-1.26348-.16443-20.29747,2.02551-23.43809l.28936,24.30617Z"/><path d="M7.97892,290.54267c.43823.95792-1.21332,1.92313-1.15744,2.02551,2.34844,4.30272,9.19219,7.64598,6.65526,13.59988-1.61059-6.49816-5.32812-10.35099-10.41693-14.46796l1.15744,4.05103c-5.27286-2.61829-3.05225-5.86184.57872-8.68077.34508.7663,3.08497,3.25814,3.18295,3.47231Z"/><path d="M64.40395,233.24957c4.76935,8.39421,4.82616,18.48453,6.3659,27.77848-2.51725-.31596-1.58376-1.58354-2.60423-3.18295l-3.76167-24.59553Z"/><path d="M.16622,293.43626c3.6699,4.09568,5.99215,8.17462,7.23398,13.59988l-.86808,1.4468-2.60423-7.23398.86808,11.28501c-2.45431-3.48862-1.17701-9.20594-2.02551-13.02116-.38926-1.75027-3.51725-3.82171-2.60423-6.07654Z"/><path d="M10.00443,314.84884c.83635-.18088,2.7404,9.66317.57872,10.99565-3.59293,1.20594-1.52427-9.29678-.57872-10.99565Z"/><path d="M5.37468,296.32986c1.91503-1.0981,5.94101,14.20148,4.05103,14.46796l-4.05103-14.46796Z"/><path d="M101.44191,238.45803c2.05888,3.11384,2.45656,7.40363,1.73615,10.99565-2.21416-3.19791-2.45177-7.24517-1.73615-10.99565Z"/><path d="M77.13575,239.61547l5.20846,10.41693c-2.64521.95547-5.9096-10.18067-5.20846-10.41693Z"/><path d="M68.74433,218.78161c2.40402-7.75628,6.41302-1.63655,1.4468.57872-.07115.03174-.69923-1.01314-1.4468-.57872Z"/><path d="M37.78291,245.98137c.82561,1.21096.82561,1.68263,0,2.89359-.46478-.22328-.4701-2.66688,0-2.89359Z"/><path d="M47.62112,245.98137c2.73713-.14987,5.04362.41213,6.07654,3.18295-1.4286.32281-13.48055,1.1879-11.28501-1.4468,1.35045-.19225,4.11814-1.67646,5.20846-1.73615Z"/><path d="M45.30624,233.82828c4.08591-.36999,8.72277.21148,12.44244,2.02551-6.53061-1.0021-12.2276-1.65285-18.80834.28936,1.08865-1.38311,4.82097-2.17498,6.3659-2.31487Z"/><path d="M41.83393,265.07907c-.03563,1.28244,3.38476,5.00368,4.05103,5.20846,3.08763.949,4.59887-1.74463,6.65526-.86808-2.98073,4.38857-12.73707.70215-10.70629-4.34039Z"/><path d="M47.0424,239.61547c.5127,3.15263-6.31085,3.56082-8.39141,3.76167l8.39141-3.76167Z"/><path d="M49.35727,240.7729c3.24922-1.07245,5.87267,1.70232,5.49782,4.91911-1.83993-1.78803-3.2046-3.3126-6.07654-3.76167-.56701-.28971.40169-1.09901.57872-1.15744Z"/><path d="M44.14881,237.30059h4.05103c.02865.95403-8.8562,2.48652-8.97013,2.02551l4.91911-2.02551Z"/><path d="M45.88496,243.08778c.6633-.07752,3.32008-.45074,2.31487,1.15744l-7.23398,2.02551c-.47492-1.0524,4.32174-3.11314,4.91911-3.18295Z"/><path d="M47.0424,222.83264c5.49668-.58043,12.05432.36215,16.49347,3.76167-8.02688-2.9536-16.63614-4.15152-24.59553-.28936,1.50826-1.95973,5.61473-3.20966,8.10206-3.47231Z"/><path d="M65.56138,223.41136c.8074.107-.20402,1.78581-.57872,1.73615-.8074-.107.20402-1.78581.57872-1.73615Z"/><path d="M64.59176,390.59036c.27913-.14681,4.46492-.96543,4.99434.08785-4.63349,13.42326,14.82244,10.53708,19.59488,18.28293l-27.9202-.55819c-.81198-1.17176,1.72814-7.73237,1.98102-9.68869.31063-2.40314-2.92661-5.87467,1.34996-8.12391Z"/><path d="M30.54892,391.57637c-.29866-.10133-4.56098-.25506-4.91911.86808,6.67635,12.53313-12.99154,12.72615-16.49347,21.12322l27.48912-4.91911c.61867-1.28436-2.91651-7.36682-3.47231-9.25949-.68275-2.32495,1.97155-6.26017-2.60423-7.8127Z"/><path d="M59.03458,483.99897c-.27209-.46252-.25137-1.57027-1.26353-2.02164-.84382,1.05304.91125,1.61076,1.26353,2.02164,1.72429,2.93111,4.7641,6.99465,8.33928,7.58116,1.94199.31859,9.03321-2.31469,6.57034,1.51623-3.67829,5.72148-16.31833-5.53666-17.18397-10.10822.96772,4.7442,6.73228,11.24895,11.62445,12.12986.42807.07708,12.23612-.18777,4.04329,2.02164-9.02096,2.43274-16.66238-10.04109-18.7002-17.18397.86691,8.74759,9.85999,20.53966,19.71102,17.68938l.75812,1.76894c-4.43109,4.51454-12.55017-1.3209-15.66773-4.8014-1.68509-1.88126-8.88406-15.70231-8.59198-17.43667.20403-1.21153,2.70809-1.45508,3.53788-2.52705,4.47394-5.77973,1.2138-21.55903-6.82305-22.99619-9.18904-1.6432-11.67962,4.59123-10.86633,12.38256.4398,4.2133,2.49256,8.28018,5.81222,10.86633.83265.64867,4.98661,1.9244,5.30681,2.27435.72156.78857,4.94543,12.92924,6.57034,15.66773,3.15364,5.31489,7.59364,10.81332,13.8988,12.38256.40015.09959,10.73908-.22841,5.55952,2.02164-5.33886,2.31925-15.06388-3.61048-18.44749-7.83387-4.29346-5.35905-7.30409-19.206-9.6028-21.73266-1.30006-1.42898-5.29751-1.62013-8.08657-4.04329-37.58051-32.65023,19.12657-55.50883,24.25972-27.29218,1.23342,6.78005-3.95189,9.52802-4.5487,14.1515-.20599,1.59581,1.18944,6.40509.50541,8.59198,10.2613-1.15239,17.50793-2.57282,26.02865,3.79058,14.36227,10.72595,15.17171,17.9525,20.97455,33.10441,2.49296,6.50941,6.40573,12.75328,8.08657,19.71102-4.50088,3.76261-1.84091-1.7951-2.02164-2.02164-.36317-.45523-1.90199.15585-3.03246-1.51623-.71595-1.05896-2.68498-10.0755-3.28517-10.36092-1.20898-.57493-3.42818,2.18591-4.8014.75812l4.5487-2.52705c-5.10283-6.42541-8.22489-14.90919-14.90962-19.96373-4.31654-3.26387-9.32165-4.13611-13.64609-6.57034-1.40346-.79001-1.16089-2.68083-2.02164-3.03246-.86635-.35392-3.54973.33539-4.5487,0-5.76212-1.93456-8.27392-4.81393-11.11904-10.10822.09995,3.66742,4.71949,8.79811,8.08657,10.10822,1.90448.74102,9.41774.53637,7.83387,3.28517-7.4761,2.66774-12.98302-4.41044-16.93126-9.85551,1.11905,4.58724,7.08713,9.97228,11.62445,11.11904.56875.14375,9.2345-.49804,5.05411,2.02164-5.28874,3.18773-12.33195-3.08944-14.65691-7.58116.40399,2.80559,5.03426,8.01944,7.58116,8.59198,1.19691.26906,11.7368-1.38005,7.07575,2.02164-4.54845,3.31951-11.21075-2.92971-13.8988-6.06493ZM41.59791,434.97413c-4.59407.24415-10.59891,3.93016-12.88797,7.83387-5.72494,9.76315.55597,18.52261,6.82305,26.02865-7.64462-15.16861,8.55787-27.63791,18.7002-12.63527l.75812-.75812c-2.14386-10.98277-17.34164-16.31466-21.22725-3.53788-.38832,1.27687,1.01192,6.09219-1.76894,5.30681-.6181-.17456-1.67708-3.19222-1.76894-3.79058-2.69183-17.53427,24.66106-18.75256,26.28136-1.51623-5.57893-14.82239-25.59189-14.58425-25.01783,2.77976,2.57109-17.40435,20.73527-15.57817,25.27054,0l1.26353-5.30681.50541,2.52705c3.4543-3.25659-3.01724-11.74036-6.31763-13.8988-2.77375-1.81401-7.2379-3.21187-10.61363-3.03246Z"/><path d="M88.3484,543.13203c-1.65713.60824-.6514,1.28184-.50541,2.52705-.99993.59169-2.08161-.61952-2.27435-1.51623-1.44107,3.53077-1.80021.08424-2.52705,0-.67069-.07773-1.58131,2.03542-2.52705,2.02164-.76206-.0111-.58113-2.52186-1.76894-.75812l3.53788,26.28136c-3.10007-2.25282-2.56843,1.78865-4.8014,3.28517-.16653-3.83445,1.64935-6.1735-2.27435-8.59198,1.32416-4.62094-1.66186-14.22015-1.01082-17.94208.22884-1.30828,3.304-.82456,3.03246-2.02164-.67199-2.96251-1.93135.19399-2.27435.25271-1.14221.19551-1.33617-1.532-1.51623-1.51623-.41945.03672-.20079,1.00647-.25271,1.01082-1.3986.11729-2.64447-.54606-2.77976-.50541-.1628.04892-1.85832,2.05731-2.27435,2.52705.20778-1.39622-.18573-2.00322-1.51623-1.26353.35443.8127.43208,1.3911.50541,2.27435.27478,3.30975,2.13496,15.56591,1.51623,17.94208-.05134.19716-2.85337,2.50506-3.53788,2.02164l-1.26353-21.47996c.24568,5.65973,1.90174,15.6796.75812,20.97455-.17147.79392-1.40169,1.83823-2.52705,1.76894,1.10769-6.19527-1.35541-15.22401-.50541-20.97455.07251-.49055,1.3548-.00367,1.51623-.50541.03831-.11907-1.64386-1.76964-1.76894-1.76894-.15836.00089-.52408,1.5157-1.01082,1.51623-.18486.0002-.69889-1.42168-2.27435-.50541-1.77889,1.03459,1.69137,23.18515-2.27435,26.28136l-1.76894-.25271c1.15201-8.30727,1.92121-16.96447,1.01082-25.27054l-1.01082.75812c-1.28687-1.46823-3.57213.02003-3.79058,0-.25067-.02299-1.28113-1.50588-1.51623-1.51623-.69356-.03054-1.54724,2.0726-2.52705,1.51623-.33333-.18928-.10233-2.3548-1.51623-1.51623-.18947.11237.7267,4.54673-1.26353,0,.56956-1.83178,2.91326-11.59067,3.79058-12.12986,11.36499-1.75784,21.97213-6.14593,32.8517-9.6028,1.73315.38202,8.24894,14.38202,8.33928,16.67856Z"/><path d="M40.58709,476.92322c2.70777.53471,2.94654,14.46884-2.02164,17.18397-5.63912,3.0818-3.87007-1.09974-6.82305-3.79058.40037,7.80421,4.58859,23.18427,2.02164,30.32465-1.16047,3.22803-15.15744,12.62612-15.16232,14.65691-.00087.3614,5.45508,6.81812,1.26353,5.30681-.82093-.29599-7.59442-13.04422-9.85551-14.40421.99582-1.71777,4.47705,4.29663,5.30681,4.29599.8041-.00062,9.66919-10.28163,11.37174-11.37174.30014-8.46283-4.93904-25.20471-3.03246-32.8517.90005-3.60997,14.51819-9.82661,16.93126-9.3501Z"/><path d="M43.11414,477.42863c5.30087,9.80534,8.90849,26.9986,21.73266,30.32465,2.19197.5685,12.79526-.70341,8.59198,3.03246-.78631.69887-16.74649,7.54799-19.20561,8.59198-.33219.14103-4.63184-.04768-5.30681,1.76894l4.5487-1.01082c-1.32701,1.12833-5.28215,3.69713-6.57034,1.51623.63884-4.3464-12.47-23.49597-12.12986-25.27054.13484-.70348,6.57654-1.43239,8.08657-6.57034,1.26694-4.3108-.27152-8.25963.25271-12.38256ZM70.91173,508.7641c-6.3248.8673-17.46897,7.09454-23.5016,9.85551,8.45626-3.07184,16.71484-6.87312,25.27054-9.6028-.18988-.39392-1.36361-.30829-1.76894-.25271Z"/><path d="M82.78889,547.17532l4.04329,30.57735-2.77976-26.02865,6.57034,25.27054-6.82305-30.32465c3.34429-.43441,3.76567-.92028,5.55952,2.27435,1.06561,1.89773,9.1433,26.81725,9.09739,28.303-.02036.6589-.53255,1.17863-.75812,1.76894-3.01006.71428-8.24934-28.5671-11.37174-31.08276,3.07879,8.71541,4.67518,18.05131,7.58116,26.78677.56407,1.69562,3.46088,4.75541,3.53788,5.05411.2573.99821-3.45385,18.12286-4.04329,20.21643-.05332.18938-1.55369.55172-1.51623,1.01082.0157.19241,1.40647.43559,1.51623,1.01082,1.01879,5.33921-8.96118,5.25259-7.07575-2.02164,1.72274.05898,1.22162,1.6125,1.26353,2.77976,1.37945-2.35071,1.40166-1.25017,3.28517-2.27435-6.78461-.14883-7.96483-12.16351-7.58116-17.18397.15521-2.031,2.58057-7.42394,2.02164-9.09739-.23278-.69696-1.8973-.8751-2.02164-1.51623-1.60531-8.27724-.55223-17.09832-3.03246-25.27054.79906-1.14181,2.40456-.21925,2.52705-.25271Z"/><path d="M53.98047,550.20779c1.16181,2.21593.14502,23.62109-1.01082,26.02865-.67795,1.41214-2.95629,1.8561-3.03246,2.02164-.48106,1.04548,5.50639,18.63732,3.53788,22.74348-.34597.72166-7.93828,2.63916-8.59198,2.02164-.65104-.615-4.92683-16.12287-5.05411-17.18397-.16-1.33397.1698-3.93913.50541-5.30681.32429-1.32153,2.51487-4.81846,3.03246-6.82305.82993-3.21421,4.72708-22.94652,5.81222-23.5016.14667-.07503,3.20463.10899,3.28517.25271.75021,1.33875-3.38898,26.92395-4.8014,30.07194,5.58591-8.95168,2.87711-20.52877,6.31763-30.32465ZM50.18989,551.72402c-1.48665,9.68291-3.77065,19.20149-5.55952,28.80841,3.1848-9.17689,5.36571-19.03579,5.55952-28.80841Z"/><path d="M45.13578,456.20138c9.6477-.50914,13.2054,18.03142,4.5487,19.71102-12.31656,2.3897-15.98055-19.10772-4.5487-19.71102Z"/><path d="M38.56544,428.9092c16.42263-2.30346,29.96089,11.48799,26.28136,27.79759-3.44556-7.57903-1.87574-14.79366-9.6028-20.72184-14.54692-11.16035-34.47999.69323-31.58817,18.9529.46532,2.93817,5.17694,9.07431,5.05411,9.6028-.55887,2.40465-3.91466-1.2258-4.5487-2.02164-9.33072-11.71189-.0517-31.58221,14.40421-33.60982Z"/><path d="M88.60111,608.33002c.26083-.0885,3.98323-.22275,4.29599.75812-5.83065,10.94553,11.34587,11.1141,14.40421,18.44749l-24.00701-4.29599c-.5403-1.12166,2.54707-6.43365,3.03246-8.08657.59626-2.03045-1.72181-5.46718,2.27435-6.82305Z"/><path d="M51.70612,613.88954c.50747.01598.83617-.14764,1.26353.25271.40956.38368,4.07832,9.75957,2.77976,10.36092l-23.5016,3.28517c-.61817-2.02936,11.25434-7.30102,12.88797-8.84469,1.76054-1.66359.94096-3.5026,2.02164-4.04329.20836-.10425,4.31583-1.01816,4.5487-1.01082Z"/><path d="M77.48207,520.89396c1.16932.13352,2.11731,2.06664,1.51623,2.52705l-17.43667,6.82305c3.3118.03975,16.16626-7.35986,18.19479-6.06493.23654.151.61433,1.515-.25271,1.76894l-32.59899,8.84469,30.57735-13.8988Z"/><path d="M7.22998,527.4643c4.97522,4.84478,12.1193,9.81069,10.10822,17.68938-2.03127.48669-1.20161-2.50283-2.52705-2.52705-.41148-.00752-2.0721,3.09341-3.28517,2.77976-.43357-.686,4.55788-8.34751,2.27435-7.83387.51162,2.12915-6.40917,7.89538-7.32846,6.31763l5.55952-5.55952c-1.12553-2.51804-6.99347,4.82727-7.07575,2.52705l3.53788-4.5487-5.05411-1.01082,7.58116-1.51623c.49075-.6119-6.05736-6.23463-3.79058-6.31763Z"/><path d="M53.98047,549.70237c.08022.09153-.0725.36713,0,.50541-3.44052,9.79588-.73173,21.37297-6.31763,30.32465,1.41242-3.14799,5.55162-28.73319,4.8014-30.07194-.08054-.14372-3.1385-.32773-3.28517-.25271-1.08514.55508-4.9823,20.28739-5.81222,23.5016-.5176,2.00459-2.70818,5.50151-3.03246,6.82305l-.50541-.50541c2.14716-3.67125,7.76398-23.68474,7.58116-27.54489-.04608-.97305.24012-1.6148-.75812-2.27435l-9.85551,28.80841c-.3459-.15321-.68056-.3294-1.01082-.50541,3.40938-5.93426,6.31891-14.22156,7.58116-20.97455.32175-1.72136,2.36876-7.8762-1.01082-6.82305.26731-.88219.90754-2.19488,1.01082-2.52705,1.99023,4.54673,1.07406.11237,1.26353,0,1.41391-.83857,1.1829,1.32695,1.51623,1.51623.97981.55637,1.83349-1.54677,2.52705-1.51623.2351.01035,1.26556,1.49324,1.51623,1.51623.21845.02003,2.50372-1.46823,3.79058,0Z"/><path d="M75.46043,517.8615c1.6623-.05575,3.09925,1.39809,2.02164,2.52705-.3921.41079-8.94198,3.20697-10.61363,4.04329-2.25046,1.12589-18.30146,10.44106-19.45831,7.32846-.7703-2.07255,5.82344-3.04663,7.32846-3.79058,3.66539-1.81186,17.80217-10.0103,20.72184-10.10822Z"/><path d="M39.82897,580.02702c-.70369,1.20318-.79622,2.37069-2.27435,3.03246l1.26353-3.28517c-.53686-1.07363-1.55832-.5529-2.02164-.75812l9.85551-28.80841c.99824.65955.71203,1.3013.75812,2.27435.18282,3.86015-5.43401,23.87364-7.58116,27.54489Z"/><path d="M74.44961,514.32362c1.39621-.03127,2.09668,1.14398,1.51623,2.52705-3.37572.12295-26.54532,14.06866-28.0503,11.87715-.12377-.18023-.09452-1.91216.25271-2.27435l26.28136-12.12986Z"/><path d="M58.52917,494.6126c2.18186,2.4147,5.18542,6.43848,8.84469,7.07575,1.30324.22696,6.54016-.65714,6.82305-.25271,1.43751,2.05517-1.95244,3.16717-3.28517,3.28517-11.64994,1.03148-21.03147-18.26077-22.74348-27.79759,3.80721,6.80926,4.77171,11.50371,10.36092,17.68938Z"/><path d="M73.43879,511.29116c.93308-.02479,1.75894.62514,1.76894,1.26353.02376,1.5169-26.01899,13.46022-27.29218,12.63527-2.1732-1.4081,3.42748-2.53642,3.79058-2.77976,3.24664-2.17577,18.64066-11.03689,21.73266-11.11904Z"/><path d="M35.78568,578.51079c-.56019-.29856-1.85338.65708-1.51623-1.26353,3.76866-8.50713,5.41016-17.70125,8.08657-26.53407,3.37958-1.05316,1.33257,5.10169,1.01082,6.82305-1.26225,6.75299-4.17178,15.04028-7.58116,20.97455Z"/><path d="M61.05622,570.42422c-.12698.84811-1.72855,1.7938-2.02164,2.77976-.39071,1.31437.21888,5.7763-1.51623,6.06493.32722-9.32523,1.99575-19.76588,1.01082-29.06112,1.63612-1.19538,2.23215-.18031,2.52705,1.26353.45511,2.22822.37141,16.47214,0,18.9529Z"/><path d="M74.70231,566.38093c-.12458,1.59197.01184,4.14917-1.76894,5.05411-.60222-1.51788-.04933-3.25148-.25271-4.8014-.72203-5.50267-1.7153-13.10392-.50541-18.44749,1.73776-.66867,1.94501,2.98521,2.02164,3.79058.34577,3.634.77967,10.89945.50541,14.40421Z"/><path d="M82.78889,547.17532c.48822-.13332.57138-.44833,1.01082-.50541l6.82305,30.32465-6.57034-25.27054,2.77976,26.02865-4.04329-30.57735Z"/><path d="M68.89009,548.69155c2.31373-.57639,2.08219,4.40196,2.27435,6.82305.11931,1.50322.51854,11.6218-1.26353,11.37174-.8003-1.47567-1.89494-17.97454-1.01082-18.19479Z"/><path d="M62.06704,570.42422c-.33204-.02044-.67751.0095-1.01082,0,.37141-2.48076.45511-16.72469,0-18.9529-.2949-1.44384-.89094-2.45891-2.52705-1.26353-.05426-.51209-.85161-1.07985-.50541-2.02164,1.57545-.91627,2.08949.50561,2.27435.50541.48674-.00053.85246-1.51534,1.01082-1.51623.12508-.0007,1.80725,1.64987,1.76894,1.76894-.16143.50174-1.44372.01486-1.51623.50541-.85,5.75053,1.6131,14.77928.50541,20.97455Z"/><path d="M75.20772,566.38093h-.50541c.27426-3.50476-.15964-10.77021-.50541-14.40421-.07663-.80537-.28388-4.45925-2.02164-3.79058.11087-.48968-1.16619-.77021,1.01082-2.02164.05191-.00435-.16674-.9741.25271-1.01082.18006-.01576.37402,1.71175,1.51623,1.51623.343-.05871,1.60236-3.21522,2.27435-.25271.27154,1.19709-2.80362.71337-3.03246,2.02164-.65104,3.72194,2.33498,13.32115,1.01082,17.94208Z"/><path d="M51.20071,609.34085c.98395.01807,1.6209-.21713,2.27435.75812.05032.9951-7.00283,2.50065-7.07575,1.01082.23791-1.00668,4.35324-1.77717,4.8014-1.76894Z"/><path d="M51.20071,611.8679c.75007.00307,2.36081-.42254,2.27435.75812-2.16873.64499-4.78104,2.41507-7.07575,1.01082-.39194-1.27627,4.43298-1.77045,4.8014-1.76894Z"/><path d="M52.21153,606.81379c.25419.06526.94983.8707.75812,1.26353-10.97639,3.73083-5.34793-2.44196-.75812-1.26353Z"/><path d="M50.6953,602.77051c6.24031-.43242-3.31274,3.60619-5.30681,1.76894,1.24908-.41297,4.22944-1.69428,5.30681-1.76894Z"/><path d="M88.60111,606.30838c7.65484-1.7784,3.42423,4.06777-1.76894.75812.62544-.03043,1.57866-.71391,1.76894-.75812Z"/><path d="M52.21153,604.79215c2.25847,1.97151-5.26189,2.04584-6.31763,1.76894l6.31763-1.76894Z"/><path d="M68.13197,548.18614c-.20383.23015-.39194,1.07015-1.01082,1.01082-.07333-.88325-.15098-1.46165-.50541-2.27435,1.33051-.73969,1.72401-.13269,1.51623,1.26353Z"/><path d="M87.84299,545.65909c-.14599-1.24522-1.15172-1.91881.50541-2.52705.03162.80373.3231,2.0368-.50541,2.52705Z"/><path d="M59.03458,483.99897c-.35228-.41088-2.10734-.9686-1.26353-2.02164,1.01216.45137.99144,1.55912,1.26353,2.02164Z"/><path d="M70.91173,508.7641c.40533-.05558,1.57906-.14122,1.76894.25271-8.5557,2.72969-16.81428,6.53096-25.27054,9.6028,6.03263-2.76097,17.1768-8.98821,23.5016-9.85551Z"/><path d="M50.18989,551.72402c-.19381,9.77263-2.37472,19.63152-5.55952,28.80841,1.78887-9.60693,4.07287-19.12551,5.55952-28.80841Z"/></g></svg>