<?xml version="1.0" encoding="UTF-8"?><svg id="Layer_2" xmlns="http://www.w3.org/2000/svg" viewBox="0 0 956.34424 891"><g id="Layer_1-2"><g style="opacity:.15;"><path d="M208.5619,131.89566c.56334.63483.86463,1.43218,1.09293,2.23665-.41604,2.8012-16.52648,8.51539-18.41842,12.6043-2.34609,5.07042,3.1009,13.25596,2.59154,16.47581-.1072.67767-3.05062,1.66182-4.14709,3.14028-2.9099,3.92365-4.56274,12.23498-11.04211,14.25534-5.59314,1.74402-8.73194-6.66026-12.13936-8.15737-6.33248-2.78227-5.09665-.04115-12.88678-5.55309-2.32643-1.64607-7.88234-4.36328-8.28299-6.56121-.32235-1.76841.23244-3.83919-.20982-5.84062-1.42246-6.43735-10.53463-7.80296-14.45765-2.71855l.39175,8.91489c-4.74587,2.01943-9.88066,3.65136-14.30758,6.36414-3.82576,2.3444-10.35718,9.18104-14.74714,10.46762-3.45523,1.01264-6.90569-.26435-10.09222,1.00343-2.30564.91731-11.8262,10.54595-12.64915,10.53133-5.42927-4.41749-5.43645-12.07724-8.14303-17.05207-5.36517-9.86147-11.54297-18.17631-16.90286-28.48061-4.91908-9.45687-15.69632-16.33321-23.37438-23.01957-10.42111-9.07512-7.78978-13.61383-13.75817-23.55708-3.09227-5.15168-8.01532-8.22605-10.80542-14.40808C-.48665,67.56178-.94384,45.36682,1.00201,29.34951c3.90682-.687,4.52552-4.41779,7.65886-6.65155l1.50584,5.03082c.30844.28778,2.92633-.51732,3.40465-.91413,2.32468-1.92855-1.61697-10.49727,9.24752-10.2906,1.39337.0265,3.46867,5.52431,2.98966.10088l4.52559,1.03338c-2.98272,4.17891-7.53859,10.65819-1.51232,14.08665,3.01982-3.27692,2.0404-8.15241,1.52156-12.0788,5.40882,5.09023,12.43563.5725,16.59677,1.02727,3.15075.34434,3.90652,3.00548,9.89905,1.75786,1.48707-.3096,9.92922-5.19882,11.77112-6.37251C79.36294,9.22701,85.1109-.59961,99.45749.02869c2.4231.10612,4.66546,1.42418,7.0927,1.5239,2.97012.12202,5.40929-1.17507,8.03045-1.14683,7.24955.07811,9.53886,9.3212,14.10835,13.20495,6.07638,5.16451,18.85242,9.38702,23.68527,13.63317,2.73841,2.40597,3.26071,6.3556,7.56541,7.56303,10.19568,24.46948,30.19866,50.50123,39.02865,74.9332,2.78717,7.7119.2029,12.90619,5.82459,19.39704,1.13939,1.31555,2.96327,1.85053,3.76899,2.75849Z"/><path d="M294.62091,595.46147c.43116,7.06972,3.98811,15.75307,3.58613,22.745-.08003,1.39199-1.82062,2.96207-1.54336,3.43117.08962.15163,1.88674-.44999,2.567,1.9528,2.02849,7.16499-1.9553,20.56386,10.3546,16.3718l14.31514,18.55997c1.80423,1.15352,3.75146-.36204,5.39392-.23134,1.47569.11743,3.19075,1.48183,4.18264,1.39054,7.63798-.70297-8.20013-24.11139,3.49913-22.87212,1.45295.98108,4.74128,27.82995,8.01773,31.62146.8878,1.02736,5.15521,1.33719,5.17744,6.13088.00351.75692-4.62661.2506-2.61328,7.6507,2.26199,8.31408,7.37206,1.94011,8.51403,5.66629,1.05307,3.4361-3.47102,14.24844-2.96933,17.95328.37712,2.78495,4.09684,3.77605,4.09634,6.09982-.00054,2.52419-4.4445,3.46603-4.1275,7.01119.27349,3.05854,3.71437,3.11726,4.59742,4.58257,1.17837,1.95535.04543,5.05193.70221,7.36539.47797,1.68361,3.82237,3.67552,3.81877,4.23483-.00454.70575-4.29571,2.33252-2.56311,5.56166,1.39144,2.59329,5.61214,1.2166,6.61263,4.00807-5.68748-.93411-17.24123-4.63501-18.7096,3.06465,4.1617,4.59652,10.35492,1.73311,15.19402,6.03746l7.03164-5.05704c2.7441,4.48506,2.84035,8.74354,9.60369,8.07074,1.03251,4.72685-4.21901,3.69623-6.615,5.9868-6.81497,6.5151,5.75809,16.05993,6.62742,21.72838.46396,3.02528-3.94504.20238-4.96637,3.17968-1.54495,4.50374,2.99162,13.81952,8.93838,10.91283,4.28277-4.30038,10.60894-6.0328,11.6306-12.55641,13.07635,3.99021,4.55405,7.77073,4.55405,14.60856v15.63022c4.59314,1.80931,6.69719-2.00699,11.0907-2.01168l-.42887,5.10778c-3.51352-.13363-6.72377,3.32587-8.38007,3.81322-1.4875.43769-3.06583-.58666-4.42062-.32152-1.6459.32212-3.62651,2.64671-5.27984,2.32605-1.09541-.21245-2.46977-2.45922-3.93793-3.12151-4.49556-2.02795-8.70255,3.01955-13.87893,2.76162-1.52502,1.0076-1.57151,5.50429-2.59554,7.48926-1.06247,2.05948-4.77615,5.74662-5.28176,7.91888-.51001,2.1912.92171,3.84575.81217,5.74292-.12195,2.11224-2.75996,5.75978-2.45936,8.6522-1.46864,2.20431-4.82568-.36735-7.32555.60333-1.5568.6045-2.18814,3.21187-3.76809,4.43637-2.44387,1.89405-5.8747,2.0665-8.09658,4.71947-3.23571.2825-18.01855-15.61499-21.21129-18.86123-7.49376-7.61932-13.31542-11.74035-20.68177-18.6525-9.2273-8.65835-6.39847-10.65249-11.23245-19.02319-1.68434-2.91667-5.7711-5.08455-7.36165-7.80776-1.40107-2.3988-.63724-4.94576-2.00392-7.99115-3.85669-8.59388-13.61983-16.34662-16.9367-26.47854-2.25942-6.90178-1.77094-15.1657-3.24408-21.96699-1.55498-7.17915-8.69564-9.08108-9.42558-19.91871-.38866-5.77056,4.57431-7.76755,2.11821-17.14728-1.99276-7.61027-11.20535-9.59253-12.23557-12.97736-.42946-1.41102-.86247-9.61538-.88247-11.78289-.01248-1.3526,1.38603-2.91559,1.38969-4.29386.01063-4.00267-3.74482-16.53094-5.46422-20.33226-.75882-1.67764-2.76579-1.9558-3.34978-2.93292-3.27661-5.48234,1.14663-12.61853,1.13429-17.95318-.01143-4.94244-3.72979-10.90885-4.14526-17.10069-.57773-8.61015,2.50523-15.33622,2.05195-23.73575h60.52348Z"/><path d="M443.91091,25.72498l1.02106,96.3054c-.02664,2.609-5.40328,3.54716-7.59469,3.52385-8.0128-.08527-17.41268-8.90846-25.2867-10.00164-7.57506-1.05167-18.55657,3.29508-23.9127,1.71125-4.79281-1.41726-2.55258-8.24109-8.22437-8.91546-11.68559-1.38941-25.78365,1.11758-37.32588,1.10765-19.25643-.01656-37.97608-3.17914-57.56622-1.05224-8.06031.87511-4.16907,7.50424-9.16467,12.02398-8.78656-4.69073-17.4891-4.14571-27.18092-4.00484l-45.84679,4.08584c.86706-6.3939-2.66659-11.89846-5.19608-17.50091-10.61786-23.51699-25.29537-46.72799-37.16588-69.73649,3.69178-1.11822,7.68026-.14871,11.48092-.61046,3.69295-.44867,6.79996-2.53371,10.17069-2.94187,13.49117-1.63364,32.20784.34784,46.47236.071,20.0702-.38951,40.34299-.84268,60.5385-1.11186,4.33097-.05773,7.87882-.1301,12.8874-.31962,47.24111-1.78755,94.56217-1.85132,141.89397-2.63358Z"/><path d="M532.67994,156.80698l.42133-27.3401-87.1769-4.92351-1.00445-98.82335,30.26993-.51257c1.60834,3.47137,5.1128,5.77976,6.94134,8.18308.9766,1.28358.77182,3.59894,2.1401,4.93489,3.85242,3.76139,2.365,2.49415,5.32487,6.27156.4096.52274,9.34325,7.45733,10.46728,8.17769,13.82988,8.86325,21.33911,2.63284,34.16271,4.17523,4.98834.59998,10.21297,3.67822,16.06688,4.09229,4.28559.30314,12.32031-1.96752,12.97514-1.85569,1.55728.26596,2.88813,2.93284,6.2307,2.89956,2.17507-.02166,4.085-1.79035,5.03246-1.70723,5.51559.48387,6.70698,1.48123,11.78488,2.9799,10.13806,2.9921,18.13558-3.21436,23.458-2.34914,5.14797.83686,11.85066,7.60759,15.67269,8.60639,2.40784.62923,4.69451.05653,6.53824.52267,2.85274.72125,10.88835,4.01746,13.14049,4.0651,4.01518.08494,8.21162-4.76899,12.57736-5.69065,2.68773-.56742,14.33303-1.78384,16.45579-1.21678,3.19238.85278,7.52529,6.51914,12.22717,5.71611l132.77179-23.09596v23.19323c-3.13427.09828-6.31649-.24557-9.4528.13057-37.04255,4.44248-77.83207,16.24807-114.13231,19.01273-12.66756.96477-26.03573-.07553-38.76957,1.07864l-2.06745,63.47536h-122.05569Z"/><path d="M532.67994,492.60456v14.62182l1.51309,1.5126h48.92315l-2.01088,129.08035c-5.6801-1.06817-9.48215,2.98678-14.75657,4.02341-5.99392-.84261-18.36667-7.32403-23.62356-5.61986-1.46499.47492-3.19007,2.87057-4.4271,2.58564-9.64911-18.87458-12.00094-4.04037-20.25524-4.43335-1.26403-.06018-2.87739-1.48817-5.00304-1.6398-8.87063-.63277-17.86737-1.01743-26.76428-.97287-.35661-2.89591,1.53006-5.57164-.4879-8.01524-2.67538-3.23969-4.96649-1.3199-6.41631-2.21411-1.04145-.64234-.76596-5.41419-1.67593-6.90504-.78559-1.28708-3.28811-1.49486-4.48888-2.56932-3.69897-3.30989-1.0314-8.4189-2.21289-11.90601-.60226-1.77753-3.87937-1.74121-3.92143-4.17489l1.04424-8.58142c-8.48911.64413-20.3535,2.25208-28.68165.94437-5.2408-.82292-12.21261-7.71767-16.27914-7.9899-4.33532-.29023-6.29143,4.80622-10.08772,5.02654-2.94909.17115-9.12754-3.81316-13.53616-2.02378,2.95554-4.83964-1.4261-7.63538-1.82977-10.79611-.24314-1.90379,1.01473-3.77479.86078-5.79018-.61397-8.03763-1.39776-12.63855-10.00622-14.78807.18431-5.90325,4.76011-10.56845-1.11633-15.51249,1.03233-2.14404,5.98958-2.95714,6.77699-3.7875.81827-.8629,2.86331-7.89496,5.28086-9.37373,5.56218,1.21968,12.74309,4.04764,18.48388,2.36662,2.39246-.70056,3.53455-4.19429,5.25497-5.83264,3.39827-3.23615,7.65203-2.40125,5.61113-9.48244-.29857-1.03592-2.50269-.40547-3.56149-1.62374-.8105-.93258-.71418-3.07242-1.95041-4.13051-2.04859-1.75339-5.57197-.38658-7.9879-1.09061-1.71443-.4996-11.1058-11.78788-5.00709-13.71651,3.34263-1.05706,22.64617-3.60901,26.01722-3.27452,4.79694.47597,5.47122,3.6897,8.51968,4.65115,2.92142.92138,11.93694-.97514,14.53981-2.73098,2.77112-1.86934,2.24743-4.1519,3.69235-5.38443,1.83732-1.56724,9.05211-3.1984,11.54515-5.58303,1.15626.24189,3.9289,12.52532,7.093,15.12156,1.82594,1.49824,4.22731.88794,6.2924,1.77683,2.0039.86255,3.23624,3.5514,4.99772,4.07798,9.54591,2.85367,16.15811-4.67197,20.99912-4.44379,2.40456.11334,4.08773,3.77802,7.79597,3.45381,4.22046-.369,6.43404-5.47039,10.84636-4.8558Z"/><path d="M105.984,177.98837c-.75418,10.68804,7.78902,20.69066,12.63822,30.22331,16.3362,32.11403,31.644,67.71734,49.71038,98.54053,14.03294,23.9417,31.42651,47.92268,46.41238,71.58544,6.08085,9.60169,12.55321,19.33733,17.34903,29.55853,1.52145.41035,1.66874-.39827,2.523-.9904,3.33029-2.30838,16.66441-18.17702,17.68995-8.63912.64846,6.03092.91775,12.00416,2.20178,17.96686,1.83538,8.52301,8.10579,5.54026,11.59555,9.07985.99352,1.00771,1.38756,3.66845,2.4388,5.128,2.86019,3.97112,7.32338,4.23184,11.9082,4.72876l.48322,21.20057c8.37131,1.06574,16.78616,5.25375,17.80153,14.44339-5.22493,2.15355-7.88694,5.00158-7.19586,11.04706l5.68132,2.66876c-.48013,3.78376,2.86171,17.02994.30553,19.04584-.79466.6267-3.71367-.6401-5.46877,1.09206-3.229,3.18678-3.97392,37.74563-4.51322,44.89663-.30258,4.01213-2.02166,7.84208-2.07866,12.10185-.13156,9.83188,5.28387,22.35369,8.14536,31.76842l-61.39823.88821c-2.17629-8.99503-2.34821-14.16394-7.78901-21.96466-1.40588-2.01567-8.06028-8.80155-8.34506-9.89428-.53273-2.04414,1.05621-4.59262.67956-7.56794-1.44693-11.42968-13.90633-20.59881-10.86128-36.53591.48929-2.56081,3.00719-3.72536,3.02636-7.08457.0196-3.4344-1.6954-15.45991-2.18647-20.0594-.45594-4.27042-3.05528-9.4851-3.00456-13.25304.056-4.16042,3.12047-5.41903,3.1533-9.02026.0563-6.17581-4.89268-13.17315-5.00783-18.31161-.08391-3.74454,4.30111-8.76727,5.47984-12.48821,4.1464-13.08912.46206-27.26672-5.0528-39.30275-2.8983-6.32545-14.27753-21.53298-19.13433-27.25826-3.34014-3.93742-12.7409-11.11454-14.69315-14.5552-3.76189-6.63001-7.17578-19.65705-11.2054-26.10904-8.57166-13.72443-23.49004-28.39454-31.52952-43.10228-2.184-3.99551-1.95901-11.38054-4.13549-17.04222-1.64899-4.28952-5.98246-8.54882-6.7294-10.49365-3.99608-10.40478-.60057-23.79781-14.38642-29.90983-3.23251-13.74307-13.12613-24.68092-19.30706-37.2573-1.47216-3.29272,8.45991-11.66903,10.72222-12.56835,2.9197-1.16065,5.64455-.15358,8.48972-.58854,2.22283-.33982,3.41063-2.06692,5.58726-1.96727Z"/><path d="M142.06357,152.00429c2.23761,2.22652.18184,7.64241,2.18425,10.4218.52749.73216,13.45289,10.43955,14.48198,10.77305,3.21986,1.04346,5.22347-.39246,6.75086.21356,3.065,1.2161,4.90215,8.56541,10.85867,9.44138,4.00006.58825,10.17288-6.31641,12.22362-9.55028,1.83708-2.89693,1.24165-8.24657,6.1796-7.41725,2.21376,3.42927-.03245,8.67041.53099,11.221.30634,1.38676,2.28917,2.56791,2.53049,4.47929.27973,2.21555-1.29263,3.96375-.62486,6.49154.61728,2.3367,4.65066,7.82983,7.67178,7.06198-1.04619,3.13642-3.42427,5.73248-2.01822,9.06445l4.88758-.89608c3.40316,8.18609,10.41515,13.6474,9.6664,23.14466,1.24509,1.81742,8.98206.56921,11.94313,1.16991.85174.17279,12.34601,4.82722,12.85834,5.29723,2.53889,2.32916-.60269,3.87335-1.01898,6.14066-1.22967,6.69734,3.97672,5.46335,7.12291,8.93356,1.44536,1.59421,2.12781,4.5581,2.94234,5.12581,1.43694,1.00151,6.00186.72445,8.32636,1.76033,2.58059,1.15,7.03323,3.27176,9.58148,4.53921,1.3044.64878,6.76252,4.80083,7.12939,5.97652,2.4224,7.76309-8.30554,16.41167,3.22505,16.45773l-2.00297,9.03301c1.69839.70372,7.31147.67964,6.91,3.40671-.1913,1.29949-5.01071,8.66848-6.40204,9.76426-5.51751,4.34547-12.3126.60578-12.68037,11.60408-.29726,8.88974,3.66231,6.11483,9.06986,9.11609l-3.97946,8.48863,4.02499-.99757-1.91882,7.59989,2.83031,2.82348c-2.52612,4.9168-7.08525,10.12699-9.01241,15.24933-1.43626,3.81753-1.71372,12.46325-3.27966,14.37921-1.57929,1.93229-7.34766,2.96037-9.75676,4.85734-2.16647,1.70591-6.68195,10.35142-9.9973,8.39967-1.22896-.72349-4.22523-8.01195-10.2083-5.90955-1.50905,1.48947,8.16746,15.8738,12.09719,15.13294l-11.60292,11.07523-63.21402-99.14889c-17.0135-31.77045-32.37045-64.39269-48.72568-96.49972-3.57597-7.02001-14.34631-23.14245-14.66612-29.76733-.34806-7.21017,3.03391-4.90786,7.06334-8.06277,1.40007-1.09621,1.73455-2.73019,3.28804-3.8511,3.66736-2.64614,15.51863-4.71949,15.90268-9.2341.1828-2.14883-2.5501-6.39735-.07048-8.11107,1.54029-1.06453,7.53123-.55753,8.89771.80218Z"/><path d="M586.14234,335.79818c.30178-1.01086,5.31416-3.43174,1.01873-5.54038l-1.2261,3.34786c-6.63652.26829-40.56118,12.81039-44.03947,10.62481-3.01529-4.79765.78208-21.64961-2.12867-24.59158-4.0909-4.13477-9.42711.75279-12.55977.53262-7.64885-.53757-16.72999-6.95003-22.72222-11.64935-1.56456-1.22698-2.33145-3.87268-3.73622-4.33219-5.03034-1.64546-18.66332,1.69298-18.4926-7.75727.03415-1.89025,2.33652-2.64784,2.81463-4.19807.78743-2.55314-.15737-5.99393.26239-8.81017.55444-3.71984,13.12616-24.47675,16.07808-27.28833,2.15175-2.04946,17.32181-7.02162,20.76132-7.47736,6.08208-.8059,11.3462,1.34445,16.94555.82176,3.99812-.37322,9.30054-2.65667,13.49646-3.66995,3.04883-.73627,6.24112.66535,8.29197-2.78553l-32.25633-23.68695,125.08205.99291-.01546,51.42873-1.49624-2.00697-3.53047,2.528,4.02015.48841c.17745,3.72067,3.31945,10.14555-1.00706,11.57968,4.5021,6.749,1.08529,16.81059.9735,24.1809-.2625,17.30608,2.0172,40.17087.09296,56.56339-.17229,1.46773-.12489,2.5927-1.56445,3.47806h-65.06274v-32.77304Z"/><path d="M532.67994,490.58776c-5.16549-.51863-7.21703,5.96145-12.37716,4.89428-2.185-.45188-3.30266-2.85782-6.24635-2.93896-4.89477-.13492-10.89935,5.45339-17.17428,5.16421-4.99281-.2301-5.68292-4.03123-8.83541-5.35868-1.94504-.81902-4.7679-.40207-5.62018-.93525-.52524-.32858-4.84099-10.34202-4.80526-11.41882.10028-3.02234,4.20607-6.98108,3.46432-10.84412-.86139-4.48613-8.38783-7.95019-8.85633-9.39722-1.26453-3.90568,4.15942-2.34405,4.9858-5.97493,1.58537-6.96566-5.49029-4.97619-6.11066-7.20069-.43135-4.52888,4.92197-4.33737,3.06436-10.43825l-6.03611,2.00746-5.2239-34.10397-6.89193-1.19587,1.94791-3.38499c-1.68416-4.3065-7.41511-4.07108-9.51243-6.69001-2.00832-2.5078-5.04027-12.53862-3.09458-15.19606.92673-1.26574,3.85136-.49181,5.12536-1.93235,1.54278-1.74445.53505-4.88678,1.10771-6.09058.63-1.32434,2.70531-2.02524,3.23125-3.71601,1.65975-5.33571-2.86368-7.61696-2.86534-9.88918-.00135-1.85344,2.39519-2.6666,2.85588-4.21004.5439-1.82222-.23362-5.63677.30005-6.25979.19056-.22246,3.60983-.58143,5.47337-2.09139,5.28827-4.28488,2.69487-17.40799,5.54652-23.73574-.14076-2.80242-2.7772-2.50742-5.04304-2.54213-.1826-2.03312-.60029-6.02629,2.45029-6.03275l5.12867,2.05609,1.96942-1.03458c.23403-3.38694,4.31378-6.75116,4.55853-9.57726.25126-2.90123-2.6913-.54214-3.10311-2.05291l.64989-4.61395,6.82111-.95239c1.43211.34696,1.59786,6.77838,4.7435,8.58161,4.32028,2.47659,15.33528,1.8755,16.89807,2.78143.339.19652,1.26769,2.68907,2.71702,3.82435,6.04294,4.73352,15.371,11.79891,23.18109,11.99929,4.14893.10645,7.24725-5.0226,12.60946-.83785-1.36973,3.88648-2.13222,23.73898,1.67938,25.04805l42.73173-9.99932-1.00315,105.89124-50.44146-1.01362v49.41166Z"/><path d="M580.09,850.58696c-4.98541-1.80427-9.85828,4.39248-11.81976,4.90885-2.22768.58645-4.25776-1.17239-5.69259-.96178-.94015.138-.84254,2.49637-2.26723,2.97369-2.15209.72103-5.0442-.52245-7.46542.63274-2.65062,1.26464-5.88728,11.48469-8.53034,13.6573-5.34467,4.39335-19.61698-1.96613-11.65658,13.58583-2.47331.61753-6.32362,4.94596-7.75973,5.3751-5.384,1.60887-10.78052-5.29305-15.87973-6.94101-19.24774-6.22048-39.15433,8.59818-56.71523.22947-9.53974-4.5462-15.26065-11.5236-27.93076-7.3051l-3.28694-5.87483-11.46514,1.89915c.01736-2.60907,1.39891-4.55189.84168-7.31714-.58816-2.91872-5.4693-6.36135-5.72947-9.5073-.14445-1.74669,3.77823-3.78157,3.93977-7.89382.07927-2.01806-2.22746-10.60334-3.50954-11.68379l-2.08389-.88733-7.5811,2.00269c-.1121-4.07127.98876-7.85088-2.02233-11.07718,3.29299-2.80112,6.06769-.77113,8.34628-1.21359.6679-.12969,9.22147-4.70556,9.71129-5.45787,1.13095-1.73702.94466-4.31981,1.92005-6.14777,1.42655-2.67346,4.96382-6.10122,5.23998-8.96541.21681-2.24871-1.01501-4.53457-1.05283-6.9315-.07145-4.52937.0908-9.09186.09087-13.61067,5.7069.93469,4.69617-2.97036,6.33767-4.74781,7.46758-8.08612,8.08805,4.36681,14.41783,7.60723,2.98784,1.52957,6.02287.89701,9.03655,2.05918,3.32851,1.28357,5.17806,6.13532,9.01526,2.11275l.62487-6.43248,1.5169-1.50939c3.41431-.00515,7.60086-.61702,10.9001-.08775,3.14009.50374,4.71957,3.16504,7.32562,3.76698,15.10383,3.48862,10.56436-25.98541,26.41512-22.07688l2.13692-8.96643c2.33377-.51077,1.68275.63659,2.5222,2.0708l4.51528-2.07457c-1.27449,5.74386,3.27155,7.12846,7.81623,8.83465,6.23258,2.33987,11.4005,2.30483,17.80684,3.37542,2.06077.34438,11.39599,5.06829,8.52654-1.46512-.87011-1.98113-4.22603-2.218-4.74692-4.37238-.13132-.54314.39308-6.33379,1.86756-6.36778-.98855,9.39996,4.29251,7.30768,9.78251,9.88963,2.97929,1.40117,5.90131,4.01944,8.17674,4.98051,2.58459,1.09165,6.02129-.05714,7.22855.71702,1.63668,1.04952,2.08037,5.49698,5.46927,4.51567,1.78688-.56173,1.97582-5.24938,5.66704-3.97326v78.65529Z"/><path d="M319.83902,109.41213v38.82344l31.79598,30.73598c4.46219,3.92133,1.52745,8.16004,1.44943,12.58397-.14556,8.2534.57224,16.59047-.39824,24.81072l-10.2387,1.85922c-3.45568,2.66384,1.12514,7.28485-.86809,10.2224-1.93194,2.84722-14.74396,1.12931-15.67379,10.64802-.25984,2.66002,1.93291,6.77719.03238,8.00734-1.74763,1.13118-6.684.12526-9.40409.68107-1.8494.3779-3.38134,1.96267-5.4055,2.48792-.93586.24284-2.56116-.80036-4.4108-.2875-5.80714,1.61017-10.41008,11.03828-16.08145,12.29691-4.27477.94868-7.67289-1.10837-11.67562-1.11148-.75407-.00059-1.78295,1.5793-2.84805,1.39555-.72658-.12535-5.0809-4.23167-6.99004-5.14256-2.60965-1.24511-6.56244-3.53408-8.0143-4.15839-2.57925-1.1091-6.26178-.07543-8.57504-1.95706-1.14003-.92731-2.06095-4.24463-3.79212-5.78152-1.69795-1.50739-4.29998-1.56782-5.43788-3.67407-1.19468-3.5124,1.86823-5.10614,1.87351-6.88767.01495-5.03807-5.96687-4.84938-9.04156-6.08173-6.20301-2.4862-9.56831-4.86873-17.17346-3.49874.98292-6.63642-4.0566-13.54506-7.64245-19.08395-2.20076-3.3994-2.91135-6.15401-7.47653-4.11798l2.78707-6.56654c-.14697-1.76453-6.83882-2.63249-7.671-8.31119-.34596-2.36083,1.01831-4.06758.86345-5.78337-.18996-2.1046-2.54041-2.82753-2.89941-4.23552-.37017-1.45179,1.04575-4.23857.83025-6.74532-.49128-5.71446-7.80834-19.24845-4.07838-24.40159,2.172-3.00074,17.30718-7.88629,17.77662-11.39814.55779-4.1728-8.94219-8.3084-8.6192-13.22207,20.34175.61668,40.61333-4.99909,61.06146-3.06916,11.041,1.04207,13.66368,11.21073,18.0787-7.05987.44036-.42991,6.55485-1.97712,7.10077-1.97712h30.7661Z"/><path d="M581.10256,639.82626l-1.02176,131.09998c-3.70829-1.88898-4.90048,3.10983-8.042,3.0161-1.32495-6.39039-4.90734-3.44403-8.91788-4.66129-2.70189-.82006-6.22304-4.18607-9.54445-5.6342-2.00357-.87356-4.85952-.51115-6.37426-1.695-2.16381-1.69112-.61489-6.64009-3.94552-8.1663-1.54735-.32209-2.26567,1.17869-2.50105,2.51819-1.12868,6.42301-.55567,8.47713,5.03275,11.09503.14469.79199-.88602.56612-1.51962.52265-4.38593-.30087-17.77-2.87353-21.95539-4.28195-4.67032-1.5716-10.15709-4.00223-8.80427-9.85428-4.09763.82502-4.42125,3.38684-7.5606-.99469l-4.99328,10.83581c-5.07474-3.37091-9.59951,4.52143-11.83544,8.62468-3.51821,6.45639-2.93346,15.62262-13.22488,12.57303-1.9492-.57759-2.84652-3.20539-6.31853-3.75917-3.59308-.57309-8.1821.11686-11.90483.08372l-1.51823,1.50773c-.17794,13.53227-1.85174,6.99831-8.00927,4.68558-4.36851-1.64078-7.50749.35786-11.84987-4.26665-.7122-.75847-7.07418-9.29029-7.27397-9.8698-2.678-7.76754-3.20696-24.67512-2.14922-32.93169.55028-4.29539,4.26958-8.28544-1.11197-10.18615l8.0608-9.57437c-.77791-1.10361-8.77164.1293-8.05987-4.03807l8.02537.5406c3.47287-1.52692,4.72641-9.03931,6.35325-10.36935,1.31636-1.0762,5.95353-.58908,5.83163-3.76296-.05275-1.37337-1.98396-2.48494-1.88529-3.88902.17897-2.54681,5.13011-8.87213,2.86059-13.7824,5.13766,2.58891,7.14261-3.44231,12.09169-3.03291-.34506,7.20572,3.57025,9.87881,9.79308,11.97374l2.78375-2.80118c2.69831,1.37183,11.34241,4.12292,13.40938,1.66385.78258-.93103,1.47705-4.88084,3.25749-7.03394,1.17953-1.42642,3.79401-2.11279,4.5504-3.80586.39151-.87633,1.40624-7.51604,1.3731-8.61384-.19706-6.52819-9.11583-4.43561-9.96662-9.04373l2.03556-30.74263c6.18284.25698,12.47358-.3437,18.65626.01559,5.30203.30811,12.4848,3.09718,17.38421,1.21607,2.04065-.7835,4.91814-4.25051,6.85431-4.26855,3.24874-.03026,5.75842,8.60552,9.20419,10.00059,3.46514-1.65711,4.54378-3.29882,8.81709-2.87757,4.71408.4647,14.9656,6.10948,19.1592,5.99807,4.50412-.11966,9.41653-5.66562,14.75395-4.03346Z"/><path d="M452.98376,348.40666c.70788,3.02512-3.07025,5.00754-2.98646,7.56685.0706,2.15615,3.99189,5.1723,3.84314,7.91949-6.86736,4.74435-.04573,12.28179-10.04671,12.31946-2.55907,3.47496,1.34141,16.31755,4.06674,18.9169,1.90059,1.81273,11.55518,1.24272,6.16113,8.23776l7.90713,3.15955c.42981,3.26463-.11717,6.54238.27041,9.81369.48613,4.10307,2.79369,19.11832,4.12058,22.09847,1.89347,4.25262,5.47737-.66934,5.82578-.28721l.9334,2.89704c-10.95406,5.35002,2.08733,8.43965,3.07275,10.75578,1.78197,4.18831-6.64377,1.41957-6.059,6.96868.46309,4.39443,9.9727,5.41771,8.949,12.89172-.25423,1.85615-1.82778,3.79421-1.85391,5.81153l-3.33931-1.89114c-2.50874,3.62426-9.91595,4.15041-12.1298,5.83842-1.50397,1.14674-.56233,3.96542-2.34889,5.20897-1.10098.76635-8.4747,2.7665-10.0504,2.87745-7.00599.49332-7.37173-4.54734-12.97852-5.02378-4.43794-.37712-25.17248,4.53694-26.68133,3.02894,1.45207-3.93777-5.30949-9.04283-4.91749-11.60532.13355-.87302,2.24685-1.17344,2.95309-2.18845,1.17458-1.6881.94169-6.80863,4.39449-10.40726,2.19008-2.28258,6.57295-3.04787,7.15634-3.93937.87744-1.34085.36058-5.50232,1.11706-7.95906.74735-2.42709,3.14531-3.82485,3.42702-5.7229l-4.07839-4.02751,3.00677-3.99556-8.56345-7.57017-7.88082,6.88008c-4.56841-1.59069-7.26896-3.86385-7.78933-8.88982-2.59662-.97921-4.92038,2.36753-6.49075,2.55212-.94964.11163-8.71055-2.25049-8.63078-.02131,2.78087,4.76015,4.26594,8.94411,2.5638,14.60573-.98372,1.71158-2.66726-.17825-3.02875-1.03953-.99405-2.36839.43814-7.04824-2.9907-7.0529-3.47706,2.45567-22.03119,6.20647-21.57659,10.40729.33052,3.05421,3.40527,9.31497,4.88716,12.26795l-16.19691,4.04193c-3.09124,5.6641,1.45894,12.0526-5.99477,14.14597-.52914,1.97828,5.36156,5.13373,5.90919,7.25329,1.0647,4.12078-6.67169,8.75959-10.38806,8.43753-2.93258-12.28465-11.29325,2.8064-8.13986,8.00468,3.4083,5.61849,16.44825-.75947,14.62195,8.05433-9.63206-3.41122-16.11381-3.10032-14.12242,9.07584l-5.02736-2.02786c-.10991-1.69816,2.01821-.76025,2.84123-2.68201.48827-1.14012,1.70606-7.17714-.31388-7.36215-6.02242,3.57931-13.57375,3.85047-19.91313,6.29539-1.98041.76379-3.29823,3.23728-5.53221,3.59127-2.68965.42619-6.215-2.46393-9.32588-1.88565-2.02874-9.28529,4.14209-7.714,7.0547-10.51559,2.37302-2.28257.52111-12.60484.1776-16.17489-.10957-1.13872.99803-2.65938.68605-3.87191-.76574-2.97607-5.97068-1.34761-6.02144-4.16774-.16377-9.09866,12.81558-5.98862,4.13546-16.16388l6.02681-4.08254c-5.12775-6.52422-.9742-14.97512-1.80955-22.93329,1.43934-4.90439,11.18501-.62898,11.95185-6.28544.11452-.84475-1.21922-9.07212-1.53144-9.58829l-4.56477.03675c-.90509-.92035,4.04985-6.13973,5.07829-6.59235,2.30676-1.01521,4.56253,1.15042,7.29349.38819,2.33775-.65249,3.06716-3.94998,5.01268-5.25013,1.94396-1.29911,4.90738-1.4435,5.82646-2.14024,2.45792-1.86332-1.51399-7.19385,7.32769-9.80825,4.71214-1.39333,6.11207.22533,9.17303-.08017,1.17524-.11729,2.58441-1.38195,4.21199-1.68025,3.83268-.70244,6.80335,1.91401,7.58522-3.46713l-3.07915-2.11091,2.50887-3.53641c.56756-.25822.2348,7.68255,9.64068,4.5859,1.98268-.65275,3.34465-3.11913,4.67491-3.42946,1.90401-.44417,5.58105,1.81426,8.38228-.16456l-1.00611-4.02088c4.39335,6.53118,16.63175,1.6879,15.12814-6.04961,1.86421.10189,3.54313,1.31795,5.48901,1.05547.48666-.06564,8.41371-4.11575,8.73624-4.48593,2.67684-3.07238-2.56205-7.6261,1.50082-10.59822,2.75372-2.01443,10.77888-2.66919,14.90079-4.25719,5.67881-2.18781,13.04556-9.75722,15.74898-10.56175,2.83148-.84265,7.49414,1.83782,11.10811-.39443Z"/><path d="M514.52289,205.21023c-6.3441-3.37617-13.55762-16.89132-19.18701-19.64231-4.82323-2.35704-3.79996,1.79034-5.67015,2.37267-.98617.30707-2.5152-.72381-3.44303-.35261-2.52126,1.00869-1.85057,7.53682-3.9126,9.87373-1.03935,1.17789-3.59325.72826-4.07353,2.29033-.60888,1.98035,2.28839,4.41429,2.02645,6.9298-.26847,2.57822-11.70926,13.28993-14.19942,14.11813-2.6638.88595-5.03311.13024-7.29181.77774-4.2147,1.20823-8.55986,3.15334-12.85724,4.2897l-1.45459,13.67189-16.51054,6.84601c-1.58202-5.62392-7.2608-2.87362-10.65335-4.01147-1.70055-.57036-.51234-3.09393-4.11845-3.00018-2.87469.07474-3.95452,1.63205-5.24403,1.82527-2.35103.35229-6.77592-1.80587-9.75637-.52453l-4.18352,5.87204c-5.97712-6.62469-15.24577-8.31986-12.62685-19.15595-4.47601-1.43486-3.94566,3.57038-8.07448,2.59251-2.18798-.51821-20.56047-9.8722-21.17056-11.1643,2.59213-.98576,2.76496-2.33428,3.02474-5.0234.57672-5.96979-1.21407-31.00934.48975-33.80754,9.41013-5.81121,20.14412-8.12733,27.21702-17.16646.86341-1.10343,3.41612-9.32424,6.616-6.53565.53791.46877.63531,1.99999,1.18388,2.31468,2.63413,1.51112,6.56795-1.43666,6.87137,6.27157,4.20419,1.22781,2.59826-3.4805,6.03311-3.0179l-1.56331,9.06438c1.58162,2.64486,4.883,1.46439,7.19843,2.95331,1.48279.95349,1.86244,3.39158,3.21416,4.09809,1.37853.72052,3.82418.55241,5.48779,1.32003,2.15992.99662,4.40444,3.46498,6.4292,3.74523,3.25144.45004,5.05515-2.04955,7.00476-2.01897,2.4159.03789,3.08365,3.88828,5.54693,2.57803,6.0924-6.60862-1.3543-10.66122,5.60211-17.67372,1.26971-1.27995,3.80995-.5867,4.01163-2.96866l-.08488-13.17604,11.47355-9.76349,1.16683-13.46182,72.63154,4.03295-.55701,46.44416c-4.13238,5.32948-12.24584,4.493-16.59652,9.52735v18.65542Z"/><path d="M325.89129,509.75758c.34449,2.17824-2.96459,4.40432-3.0243,4.68878-1.12737,5.3711,8.20246,7.50316,12.09647,5.38897.5269,2.35243-2.44893,3.0012-2.89366,4.74118-.59232,2.31745,2.07019,4.12761,1.75113,5.69929-.36837,1.81455-7.34675,7.70681.4,10.97166,11.33758,4.7782,6.88071-6.55424,13.24257-6.27328.73356.0324,13.44531,3.80455,14.07897,4.17541,3.08983,1.80837,1.1955,7.9669,7.19096,6.94817,5.3363-.90672,1.84348-6.40689,1.68829-9.4273,1.26553-5.27074,19.12705-2.12549,18.011,7.77786-.26423,2.34469-2.68693,4.08794-1.88577,6.93595.89247,3.17259,7.37569,3.89705,8.45964,5.74037.92289,1.56944.32251,4.33289.70796,6.3508,1.26323,6.61331-.11751,4.19222-.17209,8.29099-.03995,3.00027,4.05691,4.14328,2.77013,9.8504-.96944,4.29967-4.16386,3.10838-5.77005,5.34172-2.78467,3.87196.32569,9.25638.68259,13.30193.18233,2.06678-.8216,3.87246-.55147,6.50177.56809,5.52952,5.52031,9.64468,5.8413,13.49941.1768,2.12319-1.02016,3.92465-.90665,5.84888.43674,7.40343,6.29059,14.25213,3.9273,22.79592-2.96599-1.05119-7.77566-4.7163-10.7604-4.8022-1.66945-.04804-2.71829,1.3643-4.08139,1.56638-2.73956.40614-4.85368-1.40033-7.85071,2.20466-1.80658-1.34526-1.47175-4.44237-3.52819-5.51918-7.11544-3.72585-17.44435-3.48886-23.50723-5.74399-2.01162-.74824-2.92556-5.3994-5.22533-4.84609l-6.06915,10.07717c-1.71747-3.41162-2.1821-8.84581-7.29663-6.32059-7.03476,3.4733,2.15047,16.53428.22619,22.47484-2.90655-1.4104-6.27178-.37-9.1251-1.9713-4.56818-2.56368-11.52199-16.46399-14.58677-17.74225-1.78772-.74562-4.86701,1.16868-7.03669.53885-.55379-2.08815.72096-4.7972.49329-6.55652-2.87666-22.22964-9.74888-43.90256-15.61723-65.55105l4.04843-49.8868c5.3429-.45927,11.54921,3.96631,14.87285-2.01131l19.39976-5.05953Z"/><path d="M466.09939,589.40977c.41831.41644-.35027,6.85803-.01981,8.60793.4727,2.50319,2.80941,2.0902,3.07771,3.18508.65487,2.67236-.68704,5.54427.74142,9.12068,1.5283,3.82637,5.61809,3.83056,6.31967,5.00725,1.1023,1.84877.24351,6.00285,1.94965,7.95852,1.33621.95822,5.71414-1.52491,6.93539,2.08691l-2.67066,38.94977c.90287,6.27833,10.93516,2.73471,9.93085,13.32334-.56772,5.98554-8.36155,7.96097-9.7349,14.69603-3.54038-.33486-8.68353-2.36881-12.02746-2.21218-1.92904.09035-1.4396,2.17414-1.92773,2.11315-7.39511-.92396-6.7671-7.14201-10.21802-11.98349-2.86594-.49658-5.63556,3.39516-7.18058,3.78393-1.6456.41407-4.44398-1.43738-5.31302-.84051-1.40636.96591-.71195,8.56808-1.08027,10.53558-.62002,3.31204-5.58322,5.62259-.98757,9.11699-6.87028,2.24785-6.50992,7.78088-10.73004,12.44596-5.12503-.82263-8.465,1.33105-12.80221,2.32791-5.21505,1.19862-10.97394,1.89213-16.03507,3.12971-1.89149.46252-5.01035,2.97653-6.21294,2.691-1.17496-.27897-1.9866-3.74684-5.06005-5.0495-2.68598-1.13843-7.95-2.20789-10.64061-.95565l-1.04168-2.98527c3.72771.28574,13.88842-.63348,16.19489-3.48403.90626-1.12004.84544-3.25684,1.97013-4.08091,1.23484-.90477,3.93442-.55264,5.47048-1.58986,7.24173-4.88996-8.00689-18.6057-7.29317-23.68336.06442-.45827,5.19318-3.70809,5.82912-7.02841,1.03004-5.378.67997-28.20329.02322-34.26399-.49828-4.59828-3.42078-7.59406-3.97756-11.14974-1.44231-9.21095.12988-8.05777-3.58261-17.59541-2.117-5.43871-.40956-7.51125-.80209-11.46356-.31048-3.12626-3.40549-8.14042-1.56032-12.57467,3.59464-1.36025,8.65282-3.12325,12.49727-2.73022,2.09003.21367,3.05205,2.64972,5.87909,2.56294,4.62518-.14197,8.29407-5.20778,11.11763-5.04807,4.32854.24484,11.07287,7.14579,17.33206,7.99788,7.82016,1.06459,17.77622-.12273,25.6298-.92176Z"/><path d="M379.34381,229.41195c-3.81262,5.65222,12.63552,18.7251,15.79389,19.04126,2.94694.29499,2.43852-4.14082,2.37189-5.93558.85501-.92384,9.55058.90877,11.22814.49952,1.35868-.33145,2.57546-2.21877,3.58754-2.39154,1.71062-.29202,2.95095,2.70855,4.80705,3.44862,1.71341.68318,8.32362.16223,8.62786.46887l-.01011,4.02306-8.12927-.5851c-1.70278,8.39128-5.6572,10.31843-13.34433,6.73929l-2.55471,3.21068c1.94347,1.94194,1.70992,5.27393,2.94792,7.18082.28411.43762,4.89901,6.16129,5.40253,6.70052,12.60217,13.49594,22.67838,9.16848,37.09965,14.34094,5.55744,1.99328,4.22529,4.75672,1.80437,9.34727l-5.5444-2.56449c-2.33578,1.67436-1.44661,4.63879-1.53069,7.06918l-5.13212.41834-.93782,3.61087-5.38893-2.86873c-3.38766,1.58956-4.77525,7.75814-9.08049,6.98523-.95372-.17122-.84401-2.46205-2.27707-2.96142-4.93433-1.71945-10.78401.15496-11.48305,5.89159l5.03492,1.51865c-4.98,8.719-27.70161-2.33229-31.07404-.30023-.54225.32674-.76381,2.63304-2.17695,3.343-7.18607,3.61031-15.3134-6.36031-20.97105-7.39451-3.07759-.56257-5.24942,1.16306-7.73765.84273-2.27726-.29316-7.05465-4.45736-10.60376-4.1188-7.61857.5911-12.02258-5.47421-13.26883-7.49242-1.34489-2.17797.68695-6.17776-4.93481-5.54352l-1.11423,3.93585c-2.48747,1.71607-8.0723-3.81506-9.9897-5.45676l-10.57497-5.53218c-2.78939-1.95111-7.3952-4.07323-9.65642-6.51177-4.93739-5.32457-.48895-8.95868-12.05556-6.6019l.00738-9.08197c5.5239.38209,9.5735,2.82803,15.15986.53119,3.45573-1.42083,7.92456-9.57869,13.01803-11.1793,5.49471-1.7267,11.38161-2.28158,16.75692-2.40431,7.31492-.16702,4.30313-6.17438,4.41675-9.61645.25421-7.70125,10.78106-7.75949,16.09118-10.73421l-.89363-9.95962c7.12778-1.60347,10.92022,3.60113,16.46918,6.23297,5.61667,2.66396,15.18488,9.09187,19.83953,3.85439Z"/><path d="M401.54572,797.6459c.88448-4.23435,7.61464-8.04204-2.29838-11.81219-7.39727-2.81335-5.33232,1.1058-8.21832,4.32403-2.27989,2.54234-10.20887,9.47524-13.19936,5.9795l-1.50735-9.08293,5.05168-.00114c1.01936-6.00403-12.9329-18.02772-7.8341-22.95756.68994-.66707,12.61363-4.51413,5.77051-8.76007-4.00227-2.48328-6.38063-.95016-7.9795-8.18523-2.66687-1.93352-6.26981,4.64403-8.6061,4.63247-1.66592-.00824-2.98429-2.16916-4.49706-2.59996-2.9135-.8297-6.2261-.26242-9.1333-1.46493,4.20181-7.6884,16.81969,2.87932,19.16029-5.01533l-7.0595-2.04157,2.87659-6.55734c-6.49269-2.95333-2.32549-7.59055-4.36877-11.60071-1.09261-2.14437-4.35975-1.59881-4.6084-2.52667-1.10567-4.12585,2.66943-4.09825,3.59922-5.51586,2.67573-4.07954-4.06066-6.27686-4.16727-9.57592-.15414-4.77026,6.87554-15.88209.97326-19.62375-1.56281-.99072-3.41156.09811-4.35659-.53345-1.18424-.79142-3.85095-6.83276-3.06613-7.58104l4.04901-.00809c1.2049-6.08654-4.6093-8.17752-6.5939-12.06777-2.70352-5.29948-2.95564-13.92957-4.56475-19.75266l7.10361-11.53458c.25742,6.7328,10.00986,5.26743,15.98487,6.71903,3.99723.9711,6.94785,3.23881,11.07607,3.54147l1.83466,4.92628c3.05972.74204,4.48424-1.50295,6.08375-1.77407,1.30731-.22159,2.72611.91778,4.59131.51591.98881-.21304,1.91157-1.72614,3.30268-1.79511,2.5262-.12525,7.14048,4.43198,10.48446,4.10992-.68069,6.9543,1.34923,17.03949.09656,23.56141-.6453,3.35969-5.96739,6.43113-5.89294,7.8733,1.71159,8.75761,10.83784,13.68079,8.93023,22.89817-7.45644-.97364-5.79197,2.03071-8.46355,5.13186-3.48272,4.04272-10.97378,2.78088-15.74178,2.93922l.00014,6.05941c3.5614.28989,9.74465.35262,12.88493,1.67035,2.00721.84227,1.72203,4.07305,4.79894,4.40025l25.30873-6.08432c2.87142,2.22851,3.43636,4.00288,8.4571,3.04535l-9.05388,9.57597,4.07504,2.06356c-2.15546,7.82788-2.59668,16.02381-2.06912,24.13591.36208,5.5676,3.1684,12.28849,1.57012,17.75967-.58701,2.00944-2.25467,2.13344-3.4826,3.54194-2.32586,2.66788-.65715,3.96626-7.04889,4.56105-1.73653,7.88716,2.81505,17.18336-.28849,24.41115-2.92218,6.80543-7.95486,4.84243-13.96374,7.72205.73196-5.17285-1.00016-12.85887,0-17.64702Z"/><polygon points="654.73562 158.82378 653.73212 218.32467 526.32982 217.10452 516.74694 207.5247 516.66833 186.68276 532.67994 178.4876 532.67994 158.82378 654.73562 158.82378"/><path d="M470.46867,301.74474c.667.49853,1.85762.29528,2.69687.27715l-4.08793,9.05796c-9.43615-4.79813-15.40822,6.83834-4.97033,8.60825-2.00777,5.80278-1.24325,12.05564-2.28151,17.88353-1.03763,5.82435-3.15342,4.22446-6.7439,6.36747-1.41444.84423-2.26301,2.78674-3.80614,3.25389-3.09853.93802-7.21372-.41424-10.64034.45287-2.02674.51287-8.22272,6.76597-12.50148,8.68168-9.87935,4.42323-24.2873,2.24066-19.56879,17.23966-5.53541.15436-6.91907,5.98736-12.46827,2.12154-2.9731,4.3373-3.70524,8.21651-9.64272,9.6149-1.01807.23977-9.10662-7.35535-7.09809,1.41351-7.81322-3.0437-8.96263,4.06179-16.67307,3.11852-2.99157-.36598-1.57087-5.49747-5.50316-5.12402l-3.05198,6.51747,3.02902,2.54193c-3.55357-1.58388-7.59136,1.83588-9.51907,1.92911-2.60849.12615-5.94733-1.96601-9.48436-.00176-3.73119-3.66554-.08691-5.90285-.30928-7.26656-.13945-.8552-1.83478-1.82896-1.87774-3.22397-.01891-.61409,4.17588-8.75115,4.62923-11.30506.51416-2.89649-.37401-5.26348-.25183-7.69761.04077-.81227,1.59274-1.7772,1.52458-3.01686-.08077-1.46889-6.00766-8.84595-6.34717-14.64032-.28684-4.89547,4.0378-10.71283,2.48018-16.27418,3.51062-.74527,1.90443,3.65385,4.01824,4.0224,1.28616-2.06146.1222-6.94935.56632-8.11346.28832-.75573,4.94056-5.35087,6.30387-7.71288,1.23105-2.13287,3.73299-9.62829,4.17305-9.93969,6.18446-4.37635,17.98937,11.99451,27.65199,6.4134,1.52761-.88234,1.14889-2.79795,3.16606-2.94279,3.14924-.22613,9.28549,2.59296,13.24994,3.01819,4.26071.457,12.59703.97695,15.77582-1.84478,3.36303-2.98527.25806-4.51982-3.28921-5.10289,1.8334-4.75619,4.09299-4.5852,8.93888-3.88388,2.70786,11.07244,9.74664-2.70599,11.88177-3.05628l4.91336,2.76716c2.72998-4.14726,3.58251-3.58663,8.12858-4.82021l.44221-6.12004c3.88515,3.50002,7.91645,2.46527,8.06988-3.02723l1.48295.01619c2.51733,1.43876,6.19817,5.65592,8.63182,6.50301,4.96073,1.72671,3.40261-.41194,8.36179,3.29469Z"/><path d="M516.93435,210.8769c9.0621,8.83169,19.23445,17.10626,29.73776,24.2111,4.1343,2.7966,9.62306,3.89289,12.23362,8.43062-3.62657,1.27689-7.97074.48302-11.38086,1.2376-2.13961.47345-3.79803,2.3282-6.32821,2.74219-5.65003.92447-11.08717-1.27134-16.9677-.81834-3.33184.25667-18.39023,4.53893-21.17118,6.0602-6.73828,3.68607-22.86559,31.20382-19.80058,40.20563-3.01565.1404-6.16476-.4855-9.13203.44735-5.06552,1.59248-1.86936,7.49711-11.94995,2.97149-5.62479-2.52522-8.5331-8.96493-11.45743-10.73124-5.66558-3.42203-17.68035-3.21253-24.1944-5.057-10.82006-3.06372-18.16595-12.95865-22.93982-22.4283,1.94244-2.63859,2.87793.87746,6.42621.51322,4.97225-.51042,9.00142-3.72915,8.74772-9.01476,9.70827,1.89963,17.98984-5.41967,26.91935-8.37866,2.50027-4.36614.93838-9.29343.27011-13.83583,5.19604-.58716,10.08645-3.49313,14.83797-4.85038,2.37237-.67766,4.9526.31258,7.32541-.74416,1.05317-.46903,9.98876-8.69349,11.07732-10.10357,4.46294-5.78112,3.01153-6.0658,1.03791-12.56269,5.06787.27239,6.29078-6.13775,6.05987-10.09259,4.63105,1.79232,5.08657.81745,7.55776-3.00968,7.9802,7.90812,15.06298,16.98374,23.09116,24.8078Z"/><path d="M378.84942,110.42053c.46111-.02898,1.44571-1.39456,2.47851-1.00633,4.08875,14.40327,10.46563,8.85699,20.73884,8.08082,17.63992-1.33274,21.71385,8.85738,34.56988,9.85768,3.53241.27485,5.80281-1.52567,8.77562-1.61585,3.4763-.10545,8.6223,1.73467,12.62156.82805-2.95569,2.89531-.61246,10.47957-1.44446,12.08014-.79726,1.53372-9.16874,7.50944-11.00403,9.31293l-.79025,14.26946c-.41605,1.1673-6.37868,2.96546-7.50903,7.65296-.75998,3.15158,2.72123,9.2097-.95488,12.12689-1.80001.93555-1.19728-2.65762-4.15102-2.73921-2.79519-.07721-5.24079,2.58925-8.71778,1.56836-1.43701-.42192-2.48957-2.43883-4.01286-3.10333-1.88857-.82385-4.17886-.46225-5.785-1.27638-2.77031-1.40423-3.16234-7.83311-10.09778-5.53694-1.11718-1.00039,3.95812-6.47084,1.5339-10.10962-2.10885-3.38969-6.11416,2.51427-6.57022,2.04618.3733-5.39747-3.46623-4.03969-6.01494-5.63716-1.10013-.68954-1.13789-3.18789-3.56485-3.04309-5.76976.34425-5.95816,5.66001-8.12507,8.63997-5.71571,7.86029-19.11747,10.74531-27.20868,15.89858l-31.7604-30.47908v-37.81504c18.6971-.86852,38.4109,1.16797,56.99295,0Z"/><path d="M397.49598,430.08484c2.51005,9.37454,12.04599,11.1437,16.65904,2.03335.72042,2.21432,6.15496,4.58099,6.5488,5.04362,2.00474,2.35483-3.61819,1.92631-4.0223,3.52484-.57992,2.29402,4.8319,3.90271,4.92887,5.00501-1.99652,3.80878-5.29429,8.28613-2.90669,12.61764-11.0367.77807-9.89202,11.48817-15.81503,17.62795.57433,5.06879,5.04174,6.19299,5.23262,11.52936.09561,2.67287-2.53194,3.72754-2.37956,5.48126.05016.57732,5.2248,9.34941,5.8501,10.00622,3.52385,3.70144,10.33334,2.27175,11.03728,2.86355.71238.59889.15535,7.08161,5.14097,5.96141,2.5371,2.77973-10.28463,9.08992-10.23288,13.00146l-19.40977-3.00334c-.48806.13801-4.15838,8.07497-4.94209,8.85605-.56303.56114-2.22473.56713-3.23008,1.26209-1.12502.77768-1.90568,2.57606-3.23607,2.92137-3.75809.97543-10.56792-5.6684-16.83288-.75182-4.05244,3.18026.71714,6.02835.38477,9.96311l-4.99142-.04613c.24286-7.56203-4.04242-5.80877-8.36423-7.2654-2.82223-.95121-6.84732-3.26551-9.58956-3.56665-6.3312-.69526-4.08131,5.72883-6.95097,6.72826-1.37397.47852-6.71372-.12194-7.27589-1.02885-2.38143-3.84177,2.48793-7.33529,2.7398-8.57328.32047-1.57519-2.36137-3.40636-1.75414-5.70165.67888-2.56614,8.19207-8.14241-3.14254-5.7545l.9345-8.62855,13.18291.56335c2.06546-14.41742-26.42193-2.01294-11.59806-20.16222l1.90882,4.13578c4.01637,3.46989,14.72019-5.08716,13.58538-9.47676-.59695-2.30909-5.55444-3.89497-4.98011-7.20171.14594-.84026,2.47898-.74741,2.95928-2.19488.89692-2.70307-.58014-7.4985,1.64131-10.48854,1.65464-1.92499,14.14841-.58861,16.59977-4.64664l-4.53594-14.54136,19.19197-7.04127,2.48155,7.64669c9.21988,3.55599,7.14963-11.36889,3.09339-15.68199,4.87082,1.5911,7.62017,1.30454,12.08908-1.0168Z"/><path d="M325.8861,346.38963l.00927,4.03806,7.97326-.93203c1.25696,3.28994,1.96675,7.05864,3.34397,10.27316.58304,1.36087,2.57829,2.5844,2.70663,3.39383.18942,1.19459-1.74651,2.28837-1.84177,3.83371-.0839,1.36103,1.09915,3.14382.9723,5.05805-.34919,5.26923-4.74385,10.8992-4.92469,13.33556-.15307,2.06221,4.33417,3.66419-.21843,4.87852l2.02412,5.89792c-.44886,1.51991-3.75589,2.07999-4.50769,3.64587-.94286,1.96383-.07661,5.36069-.58207,5.97851-.19358.2366-4.22617.7292-5.87791,1.68636-2.14744,1.2444-4.20861,5.3547-4.82657,5.50181-2.62841.62571-5.67273-1.48354-8.08191-.34244-1.09722.51969-7.35611,8.21474-7.32171,8.88207.10629,2.06216,4.63419,1.57705,6.01794.49858l.92107,8.42541-1.58307,1.49311c-7.26273-.20341-10.1076,2.57115-10.47764,9.71607-.13982,2.69967,1.00955,6.32069.75898,7.92696-.17177,1.1011-1.81506,1.99144-1.74567,4.11268.08978,2.74471,3.12895,4.00328,3.05932,6.63357l-4.56941,1.7555c-4.11544-3.59103-8.79184-6.89955-14.55416-6.82836l-.53374-20.14106c-1.33026-2.66539-6.94171-2.19701-9.52818-3.58409-3.1968-1.71438-3.41591-5.91644-6.14203-7.97756-3.81405-2.88367-8.99943-.79439-10.00306-7.14296-.59319-3.75223-1.56975-7.85237-2.02603-11.08384-.49208-3.48505.61535-7.15367-.49629-10.59628-1.33698-1.91819-6.84618-.23018-9.62556-1.46994-2.37571-1.05971-7.42762-8.98702-9.09904-11.56581,5.8427-1.22076,6.3143,7.4223,11.4029,5.90979,1.41511-.42062,5.82067-7.10876,8.26939-8.94279,3.74874-2.80771,10.25292-3.65429,11.38697-8.78471.79848-3.6123-.10606-6.4291,1.43275-10.66852,1.20787-3.32769,4.50071-7.59386,6.34862-10.79788l1.98477,2.05401,7.02403-3.01774c3.48078,8.84303,6.4456,2.21794,11.49863,1.49602,2.77804-.39689,6.38028,1.44925,8.80196,1.34806,1.80521-.07543,3.18041-1.63592,5.05068-1.82124,6.18261-.61264,11.93751.32815,17.57909-2.07592Z"/><path d="M916.20086,40.06968c3.87856-2.40953,22.88125,4.63242,26.94311,7.41292.798.54626,8.54555,7.23914,8.93027,7.70263,1.05181,1.26717.79238,5.27173,4.27001,6.82227-3.67669-1.57452-6.97356,2.52941-8.75195,2.84136-1.34119.23526-3.11985-1.56543-4.91834-1.77338-8.11247-.93799-15.41755,1.40384-21.64698,6.49284-3.91433,3.19773-9.40055,13.70417-15.13734,10.12103-2.3806-1.4869-4.06105-11.43012-11.81947-7.33456l-2.29698,5.78938c-1.98185-.77843-1.99916-4.26246-5.12739-3.57227-2.11372.46636-9.23956,8.49245-12.68871,10.46249-2.7667,1.58025-8.50715,2.8202-9.97809,4.14273-3.03821,2.73167-8.79514,12.28555-11.8425,14.8767-2.41129,2.05031-8.15695,3.56943-10.77661,6.36641-1.07238-7.67384-2.18036-15.31401-8.14512-20.63234-3.8101-3.39718-6.60346-5.43725-9.40284-10.74258-4.64612-8.80524-2.08561-19.2988-2.5052-28.99386l63.8944-11.26015c5.36234.58847,11.97525-.74909,17.12579.08335,3.41674.55222,6.0034,4.13344,10.18844,4.05733,3.6578-.06652,2.81942-2.32424,3.68552-2.8623Z"/><path d="M534.69738,506.72217l-1.01395-63.53449c16.49129.11588,33.02502-.5274,49.43789,1.00869l-.00515,62.52581h-48.41879Z"/><path d="M323.86171,294.96034c.45553,3.46707,6.81643,9.10005,9.76537,10.91978,5.45565,3.36657,11.6865,1.17608,16.5381,5.90687-.12936,5.0463-3.35042,11.69468-9.13909,9.38536,1.33476,5.29662-3.30085,7.95212-4.74916,11.89883-.91382,2.49021-2.00797,13.61782-2.46461,14.17373l-5.85862,1.12567-1.59195-4.0021c-2.3294-.67974-4.1415,3.96038-8.97263.89002-1.76107-1.11922-1.09666-3.89988-4.60751-2.9137l.00151,4.05016c-5.99844.04091-14.67999-1.38175-20.47555-.02537-.89268.20892-1.82803,3.74975-4.41786,3.95148-2.64164-.20712-1.9745-3.52625-4.89017-3.9934-2.50639-.40157-4.48443,1.03843-6.52544,2.07538l1.08149-7.63437c-3.75077-3.2403-1.14751-3.88875-1.14499-7.14366.00282-3.64328-.98216-7.02585-.04568-10.78497-1.17809-3.65575-7.53449-.24864-7.96313-.64979-.98291-3.82301-2.36025-13.07798,2.51489-14.13008,4.9888-1.07663,9.62943-5.44526,12.60504-5.03624l7.83462-8.68938c.66712-.73991,1.68641-1.10044,2.65274-.85813,4.45213,1.11634,8.53094-2.86807,12.09799-2.56079,4.19223.36113,8.52227,5.5178,12.2694,7.12133l5.48525-3.07663Z"/><path d="M286.54537,272.76967c-2.02718,4.66727,10.40068,11.35335,9.08206,13.09874-2.39507,1.34372-6.17993,2.01738-8.35465,2.99485-.65409.29399-.61831,2.02993-1.3606,2.11137-1.71502.18816-4.34328-1.54169-6.42737-1.06493l1.83373-7.42173c-.93063-2.47414-3.51987-2.85714-5.86984-2.66149l2.08424-7.03632,9.01244-.02049Z"/></g></g></svg>